<?xml version="1.0" encoding="utf-8"?>
<!-- Generator: Adobe Illustrator 16.0.3, SVG Export Plug-In . SVG Version: 6.00 Build 0)  -->
<!DOCTYPE svg PUBLIC "-//W3C//DTD SVG 1.1//EN" "http://www.w3.org/Graphics/SVG/1.1/DTD/svg11.dtd">
<svg version="1.1" id="Layer_1" xmlns="http://www.w3.org/2000/svg" xmlns:xlink="http://www.w3.org/1999/xlink" x="0px" y="0px"
	 width="612px" height="792px" viewBox="0 0 612 792" enable-background="new 0 0 612 792" xml:space="preserve">
<g>
	<g>
		<path fill-rule="evenodd" clip-rule="evenodd" fill="#FBFCFD" d="M185,312.333c-4.5,0-9.017-0.236-13.494,0.083
			c-3.012,0.214-3.603-0.6-3.59-3.583c0.136-32.166,0.084-64.333,0.084-96.5c0-4-1.561-9.561,0.439-11.561S176,200.333,180,200.333
			c84,0,168,0.026,252-0.096c3.424-0.005,4.115,0.67,4.1,4.096c-0.163,34.666-0.163,69.334,0,104c0.016,3.426-0.676,4.757-4.1,4
			c-0.098-5.323-0.496-10.664-0.197-15.965c0.236-4.184-1.12-5.291-5.264-5.274c-37.665,0.154-75.33,0.091-112.996,0.091
			c-40.998,0-81.997,0.002-122.995-0.007c-2.133,0-4.715-0.596-3.508,3.12c-4.08-0.76-8.309-3.819-12.042,0.778
			c-1.772,1.272-3.146,2.78-3.057,5.155c-0.463,6.139,2.928,10.422,8.337,10.531c5.676,0.114,9.134-4.421,8.648-11.346
			c0.289-1.447-0.714-1.843-1.781-2.187c-0.016-0.282-0.109-0.535-0.279-0.761c0.06-0.724,0.119-1.447,0.178-2.171
			c2.598-0.639,2.921,1.674,3.575,3.074C193.197,302.892,191.385,307.494,185,312.333z M226.982,270.354l-0.002-0.003
			c2.249,3.728,5.502,2.101,8.111,1.008c1.572-0.659,1.672-3.555-0.473-3.71c-4.652-0.337-3.465-3.427-3.573-6.029
			c-0.069-1.658-0.015-3.32-0.058-4.98c-0.043-1.652-1.006-2.354-2.578-2.325c-1.313,0.023-2.454,0.574-2.357,1.978
			C226.372,260.978,224.804,265.795,226.982,270.354z M286.006,256.316l0.012,0.013c-1.229-3.51-4.245-2.629-5.133-0.813
			c-2.167,4.432-3.405,9.325-4.9,14.07c-0.298,0.943,0.02,2.031,1.178,2.446c1.021,0.366,2.128,0.275,2.663-0.7
			c2.614-4.776,5.046-3.601,7.675,0.009c0.707,0.971,2.001,1.171,3.186,0.514c0.799-0.443,1.372-1.242,0.985-2.052
			C289.569,265.394,289.772,260.016,286.006,256.316z M338.023,269.242c-0.015,0.319-0.029,0.64-0.041,0.959
			c-2.057-0.336-4.83,1.53-5.956-1.676c-1.546-4.4,0.534-11.268,4.077-13.952c-4.622-1.192-6.57,0.537-6.152,5.264
			c0.203,2.3,0.238,4.655-0.008,6.947c-0.486,4.544,1.639,5.908,5.826,5.493c6.627-0.658,8.669-4.814,5.254-10.953
			c2.498-2.361,2.498-2.361-1.85-6.271c-0.096,1.281-0.18,2.396-0.262,3.512c-2.283-1.417-6.36-1.94-5.2,1.006
			c1.252,3.18-0.312,5.457,0.252,8.024C334.483,269.963,336.498,269.103,338.023,269.242z M425.895,207.025
			c-10.313-0.176-20.629-0.306-30.94-0.563c-2.468-0.062-3.161,0.972-3.12,3.267c0.039,2.123,0.368,3.596,2.963,3.457
			c1.992-0.106,4.023,0.194,5.988-0.063c4.076-0.531,5.376,0.891,5.326,5.136c-0.229,19.482,0.006,38.97-0.188,58.453
			c-0.04,4.055,1.139,5.551,5.092,4.579c0.667,0.007,1.043-0.299,1.059-0.989c0.066-18.79,0.146-37.58,0.194-56.371
			c0.028-10.942,0.005-10.938,11.157-11.101c0.827-0.012,1.652-0.131,2.478-0.2c1.456-0.244,1.29-1.295,1.159-2.329
			c0.159-0.313,0.159-0.625,0-0.937C427.196,208.324,427.353,207.272,425.895,207.025z M348.211,207.041
			c-1.026,0.039-1.748,0.371-1.535,1.599c-0.449,0.799-0.449,1.6-0.006,2.401c-0.203,1.219,0.526,1.531,1.533,1.572
			c9.978,0.076,19.955,0.208,29.934,0.196c2.966-0.004,4.819,0.767,4.783,4.151c-0.069,6.656-0.055,13.313-0.008,19.97
			c0.017,2.516-1.129,3.65-3.616,3.632c-4.159-0.031-8.321-0.047-12.48,0.014c-6.512,0.096-8.153,2.153-6.337,8.316
			c2.771,9.408,5.752,18.755,8.586,28.146c0.686,2.27,1.313,3.981,4.408,2.974c3.121-1.016,2.491-2.759,1.784-5.009
			c-2.54-8.089-4.86-16.248-7.464-24.315c-0.842-2.608-0.537-3.639,2.422-3.484c3.318,0.174,6.66,0.16,9.98-0.002
			c5.012-0.244,8.756-3.611,8.873-8.36c0.198-7.982,0.176-15.977-0.016-23.96c-0.106-4.413-3.678-8.12-7.919-8.139
			C370.16,206.694,359.186,206.922,348.211,207.041z M334.287,212.851c3.402,4.422,5.082,8.592,6.692,12.753
			c6.44,16.641,10.927,33.876,15.39,51.116c0.534,2.065,0.752,4.327,4.082,3.517c3.125-0.761,2.879-2.633,2.283-4.905
			c-4.729-18.032-9.479-36.063-16.278-53.459c-1.633-4.178-3.388-8.364-6.237-11.911c-4.406-5.484-8.758-5.122-12.072,0.971
			c-1.838,3.378-3.188,6.967-4.131,10.691c-3.348,13.226-6.594,26.478-10.023,39.682c-1.231,4.742-2.275,9.617-5.176,14.035
			c-1.995-2.514-2.657-5.123-3.34-7.648c-3.91-14.453-7.68-28.943-11.567-43.403c-1.167-4.341-2.494-8.654-4.771-12.576
			c-3.531-6.081-8.148-6.191-11.834-0.311c-2.057,3.281-3.262,6.936-4.27,10.626c-4.075,14.925-8.017,29.887-12.114,44.806
			c-0.8,2.912-1.451,6.008-4.11,8.73c-4.486-9.222-6.289-18.708-8.905-27.929c-3.356-11.831-5.314-24.111-10.864-35.242
			c-3.281-6.578-8.727-6.945-13.166-1.017c-2.714,3.625-4.424,7.811-5.934,12.06c-6.085,17.134-9.783,34.916-14.299,52.478
			c-0.626,2.437-0.917,3.876,2.286,4.634c3.371,0.798,3.541-1.116,4.065-3.31c1.624-6.796,3.25-13.593,4.995-20.358
			c3.284-12.727,6.25-25.559,11.65-37.624c0.795-1.776,1.49-4.449,3.442-4.538c2.354-0.106,2.332,2.873,2.973,4.572
			c4.775,12.643,7.187,25.963,10.958,38.898c2.046,7.02,3.508,14.286,7.395,20.613c3.4,5.537,7.674,5.597,11.297,0.247
			c2.644-3.902,4.013-8.404,5.216-12.909c3.393-12.699,6.61-25.445,10.066-38.126c1.195-4.384,2.162-8.934,5.483-13.684
			c8.939,21.514,10.487,44.393,19.704,65.234c2.499-2.517,5.135-5.099,7.701-2.692c4.603,4.315,4.894-0.089,5.772-2.495
			c4.121-11.282,6.405-23.075,9.328-34.691C328.193,230.864,329.919,221.874,334.287,212.851z M198.136,207.281
			c-5.16,0-10.324-0.122-15.479,0.035c-5.015,0.152-8.608,3.525-8.726,8.403c-0.188,7.819-0.19,15.648-0.012,23.468
			c0.11,4.824,3.416,8.056,8.227,8.313c3.652,0.196,7.326,0.172,10.983,0.036c3.52-0.13,4.27,1.102,3.269,4.497
			c-2.442,8.29-4.454,16.705-6.806,25.022c-0.586,2.072-0.312,3.075,1.873,3.576c1.828,0.418,3.601,1.321,4.317-1.438
			c2.714-10.455,5.633-20.861,8.087-31.377c1.111-4.761-0.495-6.3-5.526-6.421c-4.326-0.104-8.664-0.206-12.98,0.015
			c-3.771,0.193-5.532-0.986-5.364-5.055c0.242-5.815,0.228-11.655,0.006-17.474c-0.16-4.2,1.621-5.539,5.646-5.459
			c9.318,0.185,18.642,0.031,27.963,0.075c2.057,0.01,3.471-0.188,3.497-2.875c0.025-2.654-0.93-3.474-3.496-3.4
			C208.459,207.372,203.296,207.267,198.136,207.281z"/>
		<path fill-rule="evenodd" clip-rule="evenodd" fill="#5D9CD5" d="M187.04,294.298c-1.207-3.716,1.375-3.12,3.508-3.12
			c40.999,0.009,81.997,0.007,122.995,0.007c37.666,0,75.331,0.063,112.996-0.091c4.144-0.017,5.5,1.091,5.264,5.274
			c-0.299,5.301,0.1,10.642,0.197,15.965c-82.334,0-164.667,0-247,0c6.385-4.84,8.197-9.441,5.62-14.96
			c-0.654-1.4-0.977-3.713-3.576-3.074L187.04,294.298z M228.216,300.323c-0.817-1.093-1.409-1.01-1.758,0.337
			c-0.293,0.199-0.586,0.397-0.878,0.597c-1.017-2.986-2.655-2.477-4.501-0.802c-1.117,0.451-3.919,0.702-2.444,1.955
			c1.646,1.398,1.256,4.742,4.515,4.552c3.057-0.179,2.314-3.166,3.767-4.47c0.278,0.512-0.253,2.245,1.286,0.852
			c0.284-0.004,0.568-0.014,0.852-0.031c1.233,0.783,2.478,1.511,4.048,0.84c0.167-1.338-2.212-0.67-1.771-2.21
			c0.219-0.023,0.428-0.082,0.627-0.178c0.373-0.04,0.745-0.081,1.117-0.121c0.711-0.161,0.894-0.632,0.755-1.29
			c-1.593-2.057-3.187-0.92-4.781-0.001C228.771,300.335,228.494,300.326,228.216,300.323z M379.998,300.333
			c-0.676,0.003-1.353,0.006-2.029,0.009c-2.642,1.331-2.433,2.658,0.005,3.983c0.722-0.019,1.443-0.038,2.165-0.058
			c0.759-0.41,0.85-1.128,0.863-1.88c1.342,0.628,2.635,1.426,4.04,1.834c1.226,0.355,2.766,0.594,3.626-0.692
			c0.592-0.883-0.148-1.88-0.537-2.799c-0.682-1.618-1.946-1.565-3.314-1.271c-1.277,0.273-2.545,0.584-3.816,0.879
			c-0.164-0.443-0.328-0.887-0.492-1.33C380.338,299.45,380.168,299.892,379.998,300.333z M207.993,299.026
			c-0.314,0.142-0.629,0.284-0.944,0.427c-1.014-0.034-2.028-0.068-3.042-0.102c-1.77-0.521-3.964-4.235-5.013,0.666
			c-2.383,0.313-1.653-5.358-4.902-2.794c-3.547,2.8,1.985,3.602,1.665,5.828c-0.75,0.214-1.499,0.428-2.249,0.642
			c0.912,1.309,1.893,0.669,2.871,0.102c0.874-0.14,1.747-0.28,2.62-0.42c1.917,4.355,4.793,0.675,7.208,0.858l0.422,0.011
			l0.421-0.039c5.025,0.796,4.394-1.82,2.965-4.917c-0.298-0.512-0.5-1.342-0.915-1.467
			C208.322,297.587,208.13,298.389,207.993,299.026z M341.943,300.353c-0.352,0.004-0.701,0.008-1.053,0.012
			c-0.939-0.619-2.127-1.053-2.765-1.899c-1.114-1.479-2.382-2.245-4.167-1.796c-2.223,0.56-1.506,2.538-1.848,4.029
			c-0.123,0.537-0.674,0.976-1.029,1.46c-0.438-2.011-0.444-5.233-2.705-5.063c-2.755,0.207-2.097,3.748-3.381,6.129
			c2.409-0.139,4.354-0.259,5.992,0.979c2.498-0.036,4.935-2.06,7.572,0.066c0.563,0.454,2.591,0.707,3.365-0.911
			c1.725,0.329,2.867-0.564,3.838-1.822c0.18,0.775,0.23,2.161,0.559,2.229c2.323,0.488,0.815-2.281,1.924-2.661
			c1.91,4.04,4.817,3.866,8.156,2.192c0.709,0.035,1.417,0.07,2.125,0.106c1.656,0.689,3.408,1.924,4.998,0.219
			c0.516-0.554,0.521-1.967,0.238-2.812c-0.836-2.485-3.016-1.319-4.705-1.463c-1.662,0.668-3.324,1.337-4.987,2.005
			c-0.241-2.275-3.479-0.283-3.815-2.837c-0.42-3.183-2.345-2.691-4.328-1.226C342.813,295.987,341.572,297.122,341.943,300.353z
			 M417.953,299.562c-2.082-0.681-2.979,0.078-2.977,2.259c0.004,2.175,0.882,2.95,2.972,2.235c0.964,0.1,1.935,0.156,2.89,0.308
			c2.005,0.316,3.107-0.402,3.155-2.532c0.051-2.248-1.229-2.758-3.149-2.535C419.883,299.408,418.916,299.475,417.953,299.562z
			 M244.664,297.369c-0.145-0.312-0.29-0.624-0.435-0.936c-0.427,0.293-0.854,0.585-1.281,0.878
			c-1.949,5.693-1.323,6.619,4.091,6.043l-0.053-0.048c0.673,1.618,1.777,1.252,2.612,0.339c0.812-0.887,0.787-2.111,0.334-3.254
			c-0.463-1.17-1.637-1.435-2.434-1.007C244.963,300.745,244.398,299.739,244.664,297.369z M297.009,300.371
			c-1.599-1.058-3.522-1.833-5.083-0.669c-1.403,1.047-1.118,2.85-0.05,4.47c2.031-2.983,2.031-2.983,4.117,0.035
			c1.299,1.529,2.374,4.03,4.918,2.247c2.418-1.693-0.561-4.51,0.897-6.564C300.073,298.689,298.488,299.004,297.009,300.371z
			 M393.978,297.067c-2.608,1.091-2.818,3.611-0.533,6.858c1.02-1.886,0.409-3.877,0.491-5.805c1.852,1.089,0.557,3.049,1.225,4.431
			c0.9,1.864,1.84,3.918,4.092,4.374c1.652,0.333,2.816-0.609,2.982-2.439c2.107-0.588,4.254-0.561,6.375-0.211
			c2.655,0.438,2.081-3.302,4.369-3.254c-0.49-0.612-1.234-1.831-1.436-1.747c-3.202,1.333-6.419-1.589-9.563,0.091
			C398.932,299.923,396.4,298.683,393.978,297.067z M280.107,300.531c-1.817-0.69-0.052-3.249-1.957-3.938
			c-1.441,1.858-9.456,4.016-10.832,2.975c-2.956-2.237-2.956-2.237-4.236,0.791c-1.815,0.501-1.065-1.691-2.154-2.049
			c-0.731-0.239-1.259-1.156-2.184-0.775c-0.979,0.403-0.703,1.361-0.79,2.135c-0.246,2.187,0.151,2.556,2.375,2.486
			c0.259-0.008,0.487,0.647,0.813,0.876c1.743,1.218,1.752,1.205,2.942-1.553c1.104,1.256,1.452,2.901,4.146,2.517
			c4.003-0.57,8.176,0.063,12.277,0.159c1.743,0.04,4.086,1.498,4.494-1.809c1.295,0.037,2.284-0.4,1.916-1.88
			c-0.342-1.372-1.176-1.16-1.969-0.264c-0.261,0.052-0.524,0.079-0.79,0.083C282.706,298.662,281.366,298.939,280.107,300.531z
			 M322.055,295.622c-2.09,1.758-2.578,2.988-3.443,3.879c-2.459,2.531-0.754,6.159,1.92,4.7
			C323.781,302.426,321.455,299.333,322.055,295.622z M309.953,301.985c0.02-1.766-0.752-2.709-2.619-2.731
			c-1.825-0.021-2.027,1.186-2.218,2.554c-0.282,2.023,0.806,2.575,2.55,2.591C309.326,304.413,310.031,303.587,309.953,301.985z
			 M311.216,304.002c2.343-0.146,0.913-2.468,2.367-2.812c1.044,0.659-0.296,2.989,2.032,2.745c0.709-1.626,1.027-3.292-0.707-4.347
			c-0.725-0.441-2.084-0.483-2.846-0.097C310.1,300.487,311.08,302.294,311.216,304.002z M212.985,298.517
			c-1.388,0.22-1.323,1.247-1.124,2.229c0.267,1.311-0.49,3.383,1.773,3.428c1.684,0.034,1.278-1.576,1.323-2.663
			C215.016,300.072,214.586,298.917,212.985,298.517z M365.727,296.782c-0.796,2.368-1.203,4.767,0.051,8.379
			C367.288,301.603,367.09,299.218,365.727,296.782z"/>
		<path fill-rule="evenodd" clip-rule="evenodd" fill="#609ED6" d="M334.287,212.851c-4.368,9.022-6.094,18.013-8.313,26.834
			c-2.923,11.616-5.207,23.409-9.328,34.691c-0.879,2.406-1.17,6.811-5.772,2.495c-2.566-2.406-5.202,0.176-7.701,2.692
			c-9.216-20.842-10.764-43.721-19.704-65.234c-3.321,4.75-4.288,9.3-5.483,13.684c-3.456,12.681-6.673,25.427-10.066,38.126
			c-1.204,4.505-2.573,9.007-5.216,12.909c-3.623,5.35-7.896,5.29-11.297-0.247c-3.886-6.327-5.348-13.594-7.395-20.613
			c-3.771-12.936-6.183-26.256-10.958-38.898c-0.642-1.699-0.62-4.679-2.973-4.572c-1.952,0.089-2.647,2.762-3.442,4.538
			c-5.4,12.065-8.367,24.897-11.65,37.624c-1.746,6.766-3.372,13.563-4.995,20.358c-0.524,2.193-0.694,4.107-4.065,3.31
			c-3.203-0.758-2.913-2.197-2.286-4.634c4.516-17.562,8.213-35.344,14.299-52.478c1.509-4.249,3.219-8.435,5.934-12.06
			c4.439-5.929,9.885-5.562,13.166,1.017c5.55,11.131,7.508,23.411,10.864,35.242c2.616,9.221,4.418,18.707,8.905,27.929
			c2.659-2.723,3.311-5.818,4.11-8.73c4.098-14.919,8.039-29.881,12.114-44.806c1.007-3.69,2.212-7.345,4.27-10.626
			c3.686-5.881,8.303-5.771,11.834,0.311c2.277,3.922,3.604,8.235,4.771,12.576c3.887,14.46,7.657,28.95,11.567,43.403
			c0.683,2.525,1.345,5.135,3.34,7.648c2.9-4.418,3.944-9.293,5.176-14.035c3.43-13.204,6.676-26.456,10.023-39.682
			c0.942-3.725,2.293-7.313,4.131-10.691c3.314-6.093,7.666-6.455,12.072-0.971c2.85,3.547,4.604,7.733,6.237,11.911
			c6.8,17.396,11.55,35.427,16.278,53.459c0.596,2.272,0.842,4.145-2.283,4.905c-3.33,0.811-3.548-1.451-4.082-3.517
			c-4.463-17.24-8.949-34.476-15.39-51.116C339.369,221.443,337.689,217.273,334.287,212.851z"/>
		<path fill-rule="evenodd" clip-rule="evenodd" fill="#5D9CD5" d="M198.136,207.274c5.16-0.007,10.323,0.098,15.479-0.051
			c2.566-0.073,3.521,0.746,3.496,3.4c-0.026,2.688-1.44,2.885-3.497,2.875c-9.321-0.044-18.646,0.109-27.963-0.075
			c-4.025-0.08-5.807,1.259-5.646,5.459c0.221,5.818,0.235,11.658-0.006,17.474c-0.168,4.068,1.592,5.248,5.364,5.055
			c4.316-0.221,8.655-0.118,12.98-0.015c5.032,0.121,6.638,1.66,5.526,6.421c-2.454,10.516-5.373,20.922-8.087,31.377
			c-0.717,2.76-2.49,1.856-4.317,1.438c-2.185-0.501-2.459-1.504-1.873-3.576c2.353-8.317,4.364-16.732,6.806-25.022
			c1-3.396,0.251-4.627-3.269-4.497c-3.657,0.136-7.331,0.16-10.983-0.036c-4.811-0.258-8.117-3.489-8.227-8.313
			c-0.178-7.819-0.176-15.648,0.012-23.468c0.118-4.878,3.711-8.251,8.726-8.403C187.812,207.159,192.976,207.281,198.136,207.274z"
			/>
		<path fill-rule="evenodd" clip-rule="evenodd" fill="#63A0D6" d="M346.67,211.041c-0.443-0.802-0.443-1.603,0.008-2.404
			c0.511-0.534,1.021-1.065,1.533-1.596c10.975-0.118,21.949-0.347,32.923-0.299c4.241,0.019,7.813,3.726,7.919,8.139
			c0.191,7.983,0.214,15.978,0.016,23.96c-0.117,4.749-3.861,8.116-8.873,8.36c-3.32,0.162-6.662,0.176-9.98,0.002
			c-2.959-0.154-3.264,0.876-2.422,3.484c2.604,8.067,4.924,16.227,7.464,24.315c0.707,2.25,1.337,3.993-1.784,5.009
			c-3.096,1.008-3.723-0.704-4.408-2.974c-2.834-9.391-5.814-18.737-8.586-28.146c-1.816-6.163-0.175-8.221,6.337-8.316
			c4.159-0.061,8.321-0.045,12.48-0.014c2.487,0.019,3.633-1.116,3.616-3.632c-0.047-6.656-0.062-13.313,0.008-19.97
			c0.036-3.385-1.817-4.155-4.783-4.151c-9.979,0.012-19.956-0.12-29.937-0.197C347.688,212.086,347.18,211.564,346.67,211.041z"/>
		<path fill-rule="evenodd" clip-rule="evenodd" fill="#629FD6" d="M411.016,281.292c-3.953,0.972-5.132-0.524-5.092-4.579
			c0.193-19.483-0.041-38.971,0.188-58.453c0.05-4.245-1.25-5.667-5.326-5.136c-1.965,0.257-3.996-0.044-5.988,0.063
			c-2.595,0.139-2.924-1.334-2.963-3.457c-0.041-2.295,0.652-3.328,3.12-3.267c10.312,0.257,20.627,0.387,30.942,0.564
			c0.098,0.926,0.215,1.84,1.166,2.338c0.159,0.312,0.159,0.624,0,0.937c-0.947,0.497-1.068,1.405-1.159,2.329
			c-0.825,0.069-1.65,0.188-2.478,0.2c-11.152,0.162-11.129,0.158-11.157,11.101c-0.048,18.791-0.128,37.581-0.195,56.371
			C411.721,280.632,411.367,280.961,411.016,281.292z"/>
		<path fill-rule="evenodd" clip-rule="evenodd" fill="#AACBE8" d="M341.023,261.323c3.415,6.14,1.373,10.296-5.254,10.954
			c-4.188,0.415-6.313-0.949-5.826-5.493c0.246-2.292,0.211-4.647,0.008-6.947c-0.418-4.727,1.53-6.456,6.152-5.264
			c-3.543,2.685-5.623,9.552-4.077,13.952c1.126,3.206,3.899,1.34,5.956,1.677c0.865-0.282,0.871-0.604,0.041-0.96
			c-1.525-0.139-3.54,0.722-4.06-1.647c-0.563-2.567,1-4.845-0.252-8.024c-1.16-2.946,2.917-2.423,5.2-1.008
			c0.025,0.588,0.049,1.179,0.073,1.769c-0.078,0.317-0.091,0.637-0.036,0.96c-0.15,0.193-0.303,0.386-0.454,0.578
			c0.181-0.163,0.362-0.325,0.544-0.488c0.654-0.021,1.308-0.044,1.961-0.065L341.023,261.323z M341.83,266.448
			c-0.336-0.858-0.55-1.64-1.287-1.455c-0.309,0.077-0.545,0.979-0.565,1.515c-0.019,0.503-0.169,1.505,0.857,1.162
			C341.289,267.518,341.556,266.805,341.83,266.448z"/>
		<path fill-rule="evenodd" clip-rule="evenodd" fill="#AACBE8" d="M286.006,256.316c3.767,3.7,3.563,9.078,5.666,13.486
			c0.386,0.81-0.186,1.608-0.985,2.052c-1.185,0.657-2.479,0.457-3.186-0.514c-2.629-3.609-5.062-4.785-7.675-0.009
			c-0.535,0.976-1.641,1.066-2.663,0.7c-1.159-0.415-1.476-1.503-1.178-2.446c1.496-4.745,2.733-9.639,4.9-14.07
			c0.888-1.815,3.904-2.696,5.133,0.813c-1.607,0.018-3.69-0.682-4.424,1.273c-1.496,3.987-3.352,7.916-3.982,13.48
			c2.156-2.709,3.233-4.644,6.054-4.763c2.899-0.122,3.465,3.049,6.048,3.726C289.068,264.972,286.25,260.986,286.006,256.316z"/>
		<path fill-rule="evenodd" clip-rule="evenodd" fill="#B11B21" d="M188.926,299.417c0.485,6.925-2.972,11.46-8.648,11.346
			c-5.41-0.109-8.801-4.393-8.337-10.531c1.474,1.94,0.674,5.35,3.956,6.122c4.229,3.47,7.304,2.898,11.083-2.061
			c-0.325-0.327-0.65-0.654-0.976-0.982c-0.384-0.061-0.769-0.121-1.153-0.182c0.074-0.568,0.147-1.137,0.221-1.704
			c0.989-0.529,1.719-1.287,2.092-2.362C187.751,299.181,188.339,299.299,188.926,299.417z"/>
		<path fill-rule="evenodd" clip-rule="evenodd" fill="#ED8F97" d="M174.998,295.077c3.733-4.598,7.962-1.538,12.042-0.778
			l0.005,0.001c-0.059,0.724-0.118,1.447-0.178,2.171c-0.994,0.657-1.989,1.314-2.983,1.971c-1.522,0.164-2.933,0.556-3.86,1.917
			c-0.325-0.058-0.648-0.051-0.971,0.02C175.956,299.946,174.829,298.007,174.998,295.077z"/>
		<path fill-rule="evenodd" clip-rule="evenodd" fill="#AACBE8" d="M226.982,270.354c-2.178-4.559-0.61-9.376-0.93-14.063
			c-0.096-1.403,1.045-1.954,2.357-1.978c1.572-0.028,2.535,0.673,2.578,2.325c0.043,1.66-0.011,3.322,0.058,4.98
			c0.108,2.603-1.079,5.692,3.573,6.029c2.145,0.155,2.045,3.051,0.473,3.71c-2.609,1.093-5.862,2.72-8.111-1.008
			c2.354,0,4.708,0,7.061,0c-3.628-0.528-4.531-2.566-4.132-5.738c0.144-1.146,0.192-2.355-0.018-3.479
			c-0.296-1.585,1.14-4.406-1.513-4.419c-2.124-0.01-1.189,2.67-1.268,4.173C226.945,264.037,227.011,267.198,226.982,270.354z"/>
		<path fill-rule="evenodd" clip-rule="evenodd" fill="#DA1824" d="M174.998,295.077c-0.169,2.931,0.958,4.869,4.056,5.301
			c0.038,0.937,0.076,1.872,0.114,2.809c-0.466,0.729-0.932,1.456-1.397,2.185c-0.789,0.014-1.462,0.248-1.873,0.983
			c-3.282-0.772-2.482-4.182-3.956-6.122C171.852,297.857,173.226,296.349,174.998,295.077z"/>
		<path fill-rule="evenodd" clip-rule="evenodd" fill="#F2F7FB" d="M338.985,260.331c-0.024-0.59-0.048-1.181-0.073-1.769
			c0.082-1.113,0.166-2.229,0.262-3.51c4.348,3.91,4.348,3.91,1.85,6.271L341,261.315
			C340.555,260.526,339.81,260.347,338.985,260.331z"/>
		<path fill-rule="evenodd" clip-rule="evenodd" fill="#DA1824" d="M183.884,298.442c0.994-0.657,1.989-1.314,2.983-1.972
			c0.17,0.226,0.263,0.479,0.279,0.761c0.006,0.61,0.013,1.221,0.019,1.832c-0.373,1.075-1.103,1.833-2.092,2.361
			C184.676,300.429,184.28,299.435,183.884,298.442z"/>
		<path fill-rule="evenodd" clip-rule="evenodd" fill="#ED8F97" d="M187.165,299.063c-0.006-0.611-0.013-1.222-0.019-1.832
			c1.066,0.344,2.069,0.739,1.781,2.187C188.339,299.299,187.751,299.181,187.165,299.063z"/>
		<path fill-rule="evenodd" clip-rule="evenodd" fill="#5094D1" d="M427.063,209.365c-0.951-0.498-1.068-1.412-1.166-2.338
			C427.353,207.272,427.196,208.324,427.063,209.365z"/>
		<path fill-rule="evenodd" clip-rule="evenodd" fill="#5094D1" d="M425.903,212.63c0.091-0.924,0.212-1.832,1.159-2.329
			C427.193,211.335,427.359,212.386,425.903,212.63z"/>
		<path fill-rule="evenodd" clip-rule="evenodd" fill="#5094D1" d="M411.016,281.292c0.352-0.33,0.705-0.659,1.058-0.989
			C412.059,280.993,411.683,281.298,411.016,281.292z"/>
		<path fill-rule="evenodd" clip-rule="evenodd" fill="#5094D1" d="M346.67,211.041c0.51,0.523,1.019,1.046,1.53,1.571
			C347.196,212.572,346.467,212.259,346.67,211.041z"/>
		<path fill-rule="evenodd" clip-rule="evenodd" fill="#F2F7FB" d="M338.023,269.242c0.83,0.356,0.824,0.678-0.041,0.96
			C337.994,269.881,338.009,269.561,338.023,269.242z"/>
		<path fill-rule="evenodd" clip-rule="evenodd" fill="#5094D1" d="M348.211,207.041c-0.512,0.53-1.022,1.062-1.533,1.596
			C346.463,207.412,347.185,207.08,348.211,207.041z"/>
		<path fill-rule="evenodd" clip-rule="evenodd" fill="#D8E6F4" d="M263.082,300.358c1.281-3.028,1.281-3.028,4.236-0.791
			c1.375,1.041,9.391-1.116,10.832-2.975c1.905,0.689,0.14,3.248,1.957,3.938c1.445,1.465,2.676-0.606,4.054-0.246
			c0.266-0.004,0.529-0.031,0.79-0.082c0.018,0.714,0.036,1.428,0.053,2.143c-0.407,3.307-2.75,1.849-4.494,1.809
			c-4.102-0.096-8.274-0.729-12.277-0.159c-2.695,0.385-3.043-1.261-4.147-2.517C263.75,301.104,263.417,300.731,263.082,300.358z"
			/>
		<path fill-rule="evenodd" clip-rule="evenodd" fill="#D8E6F4" d="M331.082,302.159c0.355-0.484,0.906-0.923,1.029-1.46
			c0.342-1.491-0.375-3.47,1.848-4.029c1.785-0.449,3.053,0.316,4.167,1.796c0.638,0.847,1.825,1.28,2.766,1.899
			c0.028,1.131-0.142,2.334,1.102,3.021l-0.069-0.027c-0.772,1.618-2.8,1.365-3.363,0.911c-2.638-2.126-5.074-0.103-7.572-0.066
			C331.02,303.522,331.051,302.84,331.082,302.159z"/>
		<path fill-rule="evenodd" clip-rule="evenodd" fill="#AACBE8" d="M401.979,299.365c3.145-1.68,6.361,1.242,9.563-0.091
			c0.201-0.084,0.945,1.135,1.436,1.747c-2.288-0.048-1.714,3.691-4.369,3.254c-2.121-0.35-4.268-0.377-6.377,0.21
			C398.149,302.975,402.46,301.052,401.979,299.365z"/>
		<path fill-rule="evenodd" clip-rule="evenodd" fill="#D8E6F4" d="M356.403,303.297c-3.34,1.674-6.247,1.848-8.157-2.192
			c-1.108,0.38,0.399,3.149-1.924,2.661c-0.328-0.068-0.379-1.454-0.558-2.23c0.055-1.416,0.108-2.83,0.163-4.245
			c1.983-1.466,3.908-1.957,4.328,1.226c0.337,2.554,3.574,0.562,3.815,2.837c-0.116,0.113-0.301,0.214-0.327,0.346
			c-0.023,0.119,0.093,0.354,0.203,0.398C354.796,302.439,355.95,302.141,356.403,303.297z"/>
		<path fill-rule="evenodd" clip-rule="evenodd" fill="#D8E6F4" d="M401.979,299.365c0.48,1.688-3.83,3.61,0.253,5.12
			c-0.164,1.831-1.328,2.773-2.98,2.44c-2.252-0.456-3.191-2.51-4.092-4.374c-0.668-1.382,0.627-3.342-1.225-4.429
			c0.015-0.352,0.028-0.704,0.042-1.056C396.4,298.683,398.932,299.923,401.979,299.365z"/>
		<path fill-rule="evenodd" clip-rule="evenodd" fill="#63A0D6" d="M206.207,304.233c-2.415-0.184-5.29,3.497-7.208-0.859
			c1.249-1.12,1.57-2.239-0.004-3.356c1.049-4.901,3.243-1.187,5.013-0.667C206.126,300.354,205.964,302.384,206.207,304.233z"/>
		<path fill-rule="evenodd" clip-rule="evenodd" fill="#E0ECF6" d="M225.58,301.256c0.292-0.199,0.585-0.397,0.88-0.591
			c0.153,0.613,0.305,1.22,0.457,1.826c-1.453,1.304-0.71,4.291-3.767,4.47c-3.259,0.19-2.869-3.153-4.515-4.552
			c-1.475-1.253,1.327-1.504,2.444-1.955C222.379,301.843,224.045,301.179,225.58,301.256z"/>
		<path fill-rule="evenodd" clip-rule="evenodd" fill="#E0ECF6" d="M297.009,300.371c1.479-1.366,3.063-1.682,4.8-0.481
			c-1.458,2.055,1.521,4.871-0.897,6.564c-2.545,1.783-3.62-0.718-4.918-2.247C296.333,302.928,296.671,301.65,297.009,300.371z"/>
		<path fill-rule="evenodd" clip-rule="evenodd" fill="#F2F7FB" d="M247.039,303.354c-5.414,0.576-6.041-0.35-4.091-6.043
			c0.572,0.019,1.144,0.038,1.716,0.058c-0.265,2.37,0.3,3.376,2.834,2.016c0.797-0.428,1.97-0.163,2.434,1.007
			c0.453,1.143,0.478,2.367-0.334,3.254c-0.835,0.913-1.939,1.279-2.612-0.339c1.116-0.231,2.312-0.449,1.752-2.04
			c-0.098-0.279-0.914-0.626-1.105-0.499C246.68,301.398,247.154,302.461,247.039,303.354z"/>
		<path fill-rule="evenodd" clip-rule="evenodd" fill="#E0ECF6" d="M331.082,302.159c-0.031,0.682-0.063,1.363-0.094,2.045
			c-1.639-1.238-3.583-1.118-5.992-0.979c1.284-2.381,0.626-5.922,3.381-6.129C330.638,296.925,330.645,300.148,331.082,302.159z"/>
		<path fill-rule="evenodd" clip-rule="evenodd" fill="#E7F0F8" d="M381,300.338c1.271-0.295,2.539-0.605,3.816-0.879
			c1.368-0.294,2.633-0.347,3.314,1.271c0.389,0.919,1.129,1.916,0.537,2.799c-0.86,1.286-2.4,1.048-3.626,0.692
			c-1.405-0.408-2.698-1.206-4.04-1.835C381.002,301.705,381.001,301.021,381,300.338z"/>
		<path fill-rule="evenodd" clip-rule="evenodd" fill="#E0ECF6" d="M263.082,300.358c0.334,0.373,0.668,0.746,1.003,1.12
			c-1.19,2.758-1.199,2.771-2.942,1.553c-0.327-0.229-0.555-0.884-0.813-0.876c-2.225,0.069-2.622-0.3-2.375-2.486
			c0.087-0.773-0.19-1.731,0.79-2.135c0.925-0.381,1.453,0.536,2.184,0.775C262.017,298.667,261.267,300.859,263.082,300.358z"/>
		<path fill-rule="evenodd" clip-rule="evenodd" fill="#E0ECF6" d="M198.995,300.017c1.575,1.117,1.253,2.236,0.004,3.356
			c-0.873,0.141-1.746,0.281-2.62,0.421c-0.199-0.255-0.407-0.503-0.624-0.745c0.321-2.225-5.21-3.026-1.664-5.826
			C197.342,294.659,196.612,300.33,198.995,300.017z"/>
		<path fill-rule="evenodd" clip-rule="evenodd" fill="#D8E6F4" d="M417.953,299.562c0.963-0.087,1.93-0.154,2.891-0.266
			c1.92-0.223,3.2,0.287,3.149,2.535c-0.048,2.13-1.15,2.849-3.155,2.532c-0.955-0.151-1.926-0.208-2.89-0.308
			c-0.005-0.214,0.016-0.425,0.062-0.635c0.523-1.062,1.397-2.126-0.023-3.174C417.957,300.02,417.945,299.792,417.953,299.562z"/>
		<path fill-rule="evenodd" clip-rule="evenodd" fill="#E0ECF6" d="M322.055,295.622c-0.6,3.711,1.727,6.805-1.523,8.579
			c-2.674,1.459-4.379-2.169-1.92-4.7C319.477,298.61,319.965,297.379,322.055,295.622z"/>
		<path fill-rule="evenodd" clip-rule="evenodd" fill="#E0ECF6" d="M309.948,301.981c0.083,1.606-0.622,2.432-2.282,2.417
			c-1.744-0.016-2.832-0.567-2.55-2.591c0.19-1.368,0.393-2.575,2.218-2.554C309.201,299.276,309.973,300.219,309.948,301.981z"/>
		<path fill-rule="evenodd" clip-rule="evenodd" fill="#D8E6F4" d="M359.059,299.348c1.689,0.144,3.869-1.022,4.705,1.463
			c0.283,0.845,0.277,2.258-0.238,2.812c-1.59,1.705-3.342,0.471-4.996-0.22C358.707,302.051,358.883,300.7,359.059,299.348z"/>
		<path fill-rule="evenodd" clip-rule="evenodd" fill="#89B7E0" d="M345.928,297.291c-0.055,1.415-0.108,2.829-0.163,4.245
			c-0.972,1.259-2.114,2.152-3.84,1.823c-0.001,0,0.068,0.027,0.068,0.027c-0.017-1.012-0.033-2.022-0.05-3.033
			C341.572,297.122,342.813,295.987,345.928,297.291z"/>
		<path fill-rule="evenodd" clip-rule="evenodd" fill="#E7F0F8" d="M297.009,300.371c-0.338,1.279-0.677,2.558-1.015,3.836
			c-2.086-3.019-2.086-3.019-4.117-0.035c-1.068-1.62-1.353-3.423,0.05-4.47C293.487,298.538,295.411,299.313,297.009,300.371z"/>
		<path fill-rule="evenodd" clip-rule="evenodd" fill="#E0ECF6" d="M311.216,304.002c-0.136-1.708-1.116-3.516,0.847-4.51
			c0.762-0.387,2.121-0.345,2.846,0.097c1.734,1.055,1.416,2.721,0.707,4.347c-2.328,0.244-0.988-2.086-2.032-2.745
			C312.129,301.535,313.559,303.857,311.216,304.002z"/>
		<path fill-rule="evenodd" clip-rule="evenodd" fill="#E0ECF6" d="M212.985,298.517c1.601,0.4,2.031,1.555,1.972,2.993
			c-0.044,1.087,0.361,2.697-1.323,2.663c-2.263-0.045-1.506-2.117-1.773-3.428C211.662,299.764,211.597,298.737,212.985,298.517z"
			/>
		<path fill-rule="evenodd" clip-rule="evenodd" fill="#E0ECF6" d="M393.978,297.067c-0.014,0.352-0.027,0.704-0.042,1.056
			c-0.082,1.926,0.528,3.917-0.491,5.803C391.159,300.678,391.369,298.158,393.978,297.067z"/>
		<path fill-rule="evenodd" clip-rule="evenodd" fill="#D8E6F4" d="M365.727,296.782c1.363,2.437,1.562,4.821,0.051,8.379
			C364.523,301.548,364.931,299.15,365.727,296.782z"/>
		<path fill-rule="evenodd" clip-rule="evenodd" fill="#E7F0F8" d="M231.331,301.942c-0.441,1.54,1.939,0.872,1.771,2.21
			c-1.57,0.671-2.815-0.057-4.048-0.839c-0.001-0.987-0.003-1.974-0.004-2.96c1.593-0.92,3.187-2.057,4.78,0
			c-0.251,0.43-0.503,0.859-0.755,1.29c-0.372,0.04-0.745,0.081-1.116,0.116c-0.172-0.255-0.345-0.504-0.518-0.753
			C231.404,301.319,231.367,301.63,231.331,301.942z"/>
		<path fill-rule="evenodd" clip-rule="evenodd" fill="#5094D1" d="M359.059,299.348c-0.176,1.352-0.352,2.703-0.529,4.055
			c-0.71-0.035-1.418-0.07-2.127-0.105c-0.452-1.156-1.606-0.858-2.455-1.2c-0.11-0.044-0.227-0.279-0.203-0.398
			c0.026-0.132,0.211-0.232,0.327-0.346C355.734,300.685,357.396,300.016,359.059,299.348z"/>
		<path fill-rule="evenodd" clip-rule="evenodd" fill="#D8E6F4" d="M206.207,304.233c-0.243-1.849-0.08-3.879-2.199-4.883
			c1.014,0.034,2.028,0.068,3.042,0.102c2.362,1.584,2.375,3.168,0.001,4.753l-0.421,0.039L206.207,304.233z"/>
		<path fill-rule="evenodd" clip-rule="evenodd" fill="#E0ECF6" d="M207.05,304.205c2.374-1.585,2.361-3.169-0.001-4.753
			c0.314-0.142,0.629-0.284,0.944-0.426c0.674,0.088,1.348,0.175,2.022,0.262C211.444,302.384,212.076,305,207.05,304.205z"/>
		<path fill-rule="evenodd" clip-rule="evenodd" fill="#F2F7FB" d="M417.953,299.562c-0.008,0.229,0.004,0.458,0.033,0.687
			c-0.672,0.355-1.666,0.335-1.797,1.345c-0.175,1.342,1.049,1.379,1.82,1.828c-0.046,0.21-0.066,0.421-0.062,0.635
			c-2.09,0.715-2.968-0.061-2.972-2.235C414.974,299.64,415.871,298.881,417.953,299.562z"/>
		<path fill-rule="evenodd" clip-rule="evenodd" fill="#FBFCFD" d="M225.58,301.256c-1.535-0.077-3.201,0.587-4.501-0.802
			C222.925,298.78,224.563,298.27,225.58,301.256z"/>
		<path fill-rule="evenodd" clip-rule="evenodd" fill="#FBFCFD" d="M377.974,304.326c-2.438-1.325-2.646-2.652-0.005-3.983
			C377.971,301.67,377.973,302.998,377.974,304.326z"/>
		<path fill-rule="evenodd" clip-rule="evenodd" fill="#5094D1" d="M377.974,304.326c-0.001-1.328-0.003-2.655-0.005-3.983
			c0.677-0.003,1.354-0.006,2.029-0.009c0.047,1.312,0.094,2.623,0.141,3.935C379.417,304.288,378.695,304.307,377.974,304.326z"/>
		<path fill-rule="evenodd" clip-rule="evenodd" fill="#E7F0F8" d="M284.16,300.285c-1.378-0.36-2.609,1.711-4.054,0.246
			C281.366,298.939,282.706,298.662,284.16,300.285z"/>
		<path fill-rule="evenodd" clip-rule="evenodd" fill="#E7F0F8" d="M285.003,302.345c-0.018-0.715-0.036-1.429-0.053-2.143
			c0.792-0.897,1.627-1.109,1.969,0.263C287.287,301.945,286.298,302.382,285.003,302.345z"/>
		<path fill-rule="evenodd" clip-rule="evenodd" fill="#AACBE8" d="M380.139,304.268c-0.047-1.312-0.094-2.623-0.141-3.935
			c0.17-0.441,0.34-0.884,0.51-1.325c0.164,0.443,0.328,0.887,0.492,1.33c0.001,0.683,0.002,1.366,0.002,2.049
			C380.988,303.14,380.897,303.858,380.139,304.268z"/>
		<path fill-rule="evenodd" clip-rule="evenodd" fill="#FBFCFD" d="M226.917,302.492c-0.152-0.606-0.304-1.213-0.457-1.826
			c0.348-1.353,0.939-1.436,1.756-0.343c-0.005,1.007-0.009,2.014-0.013,3.021C226.664,304.737,227.195,303.003,226.917,302.492z"/>
		<path fill-rule="evenodd" clip-rule="evenodd" fill="#63A0D6" d="M210.015,299.288c-0.674-0.087-1.348-0.174-2.022-0.262
			c0.137-0.637,0.329-1.438,1.107-1.205C209.515,297.946,209.717,298.776,210.015,299.288z"/>
		<path fill-rule="evenodd" clip-rule="evenodd" fill="#63A0D6" d="M228.203,303.343c0.004-1.007,0.008-2.014,0.013-3.021
			c0.278,0.003,0.556,0.013,0.833,0.03c0.001,0.986,0.003,1.973,0.004,2.96C228.771,303.33,228.487,303.339,228.203,303.343z"/>
		<path fill-rule="evenodd" clip-rule="evenodd" fill="#5094D1" d="M341.943,300.353c0.017,1.011,0.033,2.021,0.05,3.033
			c-1.243-0.688-1.073-1.891-1.102-3.021C341.242,300.361,341.592,300.357,341.943,300.353z"/>
		<path fill-rule="evenodd" clip-rule="evenodd" fill="#E0ECF6" d="M196.379,303.794c-0.978,0.567-1.959,1.207-2.871-0.102
			c0.75-0.214,1.499-0.428,2.248-0.643C195.972,303.292,196.18,303.54,196.379,303.794z"/>
		<path fill-rule="evenodd" clip-rule="evenodd" fill="#E7F0F8" d="M244.664,297.369c-0.572-0.02-1.144-0.039-1.716-0.058
			c0.427-0.293,0.854-0.585,1.281-0.878C244.374,296.745,244.519,297.057,244.664,297.369z"/>
		<path fill-rule="evenodd" clip-rule="evenodd" fill="#D8E6F4" d="M231.331,301.942c0.037-0.312,0.074-0.623,0.11-0.936
			c0.173,0.249,0.345,0.498,0.518,0.753C231.759,301.86,231.55,301.918,231.331,301.942z"/>
		<path fill-rule="evenodd" clip-rule="evenodd" fill="#D8E6F4" d="M233.075,301.643c0.252-0.431,0.503-0.86,0.755-1.29
			C233.968,301.011,233.786,301.482,233.075,301.643z"/>
		<path fill-rule="evenodd" clip-rule="evenodd" fill="#FBFCFD" d="M341.83,266.448c-0.274,0.357-0.541,1.07-0.995,1.222
			c-1.026,0.343-0.876-0.659-0.857-1.162c0.021-0.536,0.257-1.438,0.565-1.515C341.28,264.808,341.494,265.589,341.83,266.448z"/>
		<path fill-rule="evenodd" clip-rule="evenodd" fill="#FBFCFD" d="M338.985,260.331c0.824,0.017,1.569,0.195,2.015,0.984
			c-0.653,0.021-1.307,0.044-1.961,0.065l-0.091-0.091C338.895,260.967,338.907,260.648,338.985,260.331z"/>
		<path fill-rule="evenodd" clip-rule="evenodd" fill="#FBFCFD" d="M339.039,261.38c-0.182,0.163-0.363,0.325-0.544,0.488
			c0.151-0.192,0.304-0.385,0.454-0.578C338.948,261.29,339.039,261.38,339.039,261.38z"/>
		<path fill-rule="evenodd" clip-rule="evenodd" fill="#F2F7FB" d="M286.006,256.316c0.244,4.67,3.062,8.656,3.708,13.729
			c-2.583-0.677-3.149-3.848-6.048-3.726c-2.821,0.119-3.898,2.054-6.054,4.763c0.63-5.564,2.486-9.493,3.982-13.48
			c0.733-1.955,2.816-1.256,4.424-1.273L286.006,256.316z M283.192,259.572c-1.592,0.917-1.845,2.706-1.933,4.203
			c-0.12,2.018,1.741,1.532,2.954,1.496c1.561-0.046,2.042-1.109,1.42-2.378C285.049,261.703,285.435,259.719,283.192,259.572z"/>
		<path fill-rule="evenodd" clip-rule="evenodd" fill="#CE0309" d="M175.896,306.354c0.411-0.735,1.084-0.97,1.873-0.983
			c1.173,1.541,2.631,1.288,4.15,0.661c0.977-0.968,1.955-1.936,2.932-2.902c0.384,0.061,0.769,0.121,1.153,0.182
			c0.325,0.328,0.65,0.655,0.976,0.982C183.2,309.252,180.125,309.824,175.896,306.354z"/>
		<path fill-rule="evenodd" clip-rule="evenodd" fill="#E7F0F8" d="M184.851,303.129c-0.977,0.967-1.955,1.935-2.932,2.902
			c0.278-1.029-0.705-1.944,0.084-3.158c1.535-2.362-0.148-2.657-2.037-2.573l0.057,0.059c0.927-1.362,2.337-1.754,3.86-1.918
			c0.396,0.994,0.792,1.988,1.188,2.983C184.999,301.993,184.925,302.561,184.851,303.129z"/>
		<path fill-rule="evenodd" clip-rule="evenodd" fill="#DA1824" d="M186.98,304.293c-0.325-0.327-0.65-0.654-0.976-0.982
			C186.33,303.639,186.655,303.966,186.98,304.293z"/>
		<path fill-rule="evenodd" clip-rule="evenodd" fill="#E7F0F8" d="M179.167,303.186c-0.038-0.937-0.076-1.872-0.114-2.809
			c0.322-0.07,0.646-0.077,0.971-0.02c0,0.001-0.057-0.058-0.057-0.058C179.695,301.261,180.325,302.471,179.167,303.186z"/>
		<path fill-rule="evenodd" clip-rule="evenodd" fill="#E7F0F8" d="M226.982,270.354c0.029-3.156-0.037-6.317,0.128-9.467
			c0.079-1.503-0.856-4.183,1.268-4.173c2.653,0.013,1.217,2.834,1.513,4.419c0.21,1.124,0.162,2.334,0.018,3.479
			c-0.399,3.172,0.504,5.21,4.132,5.738c-2.354,0-4.708,0-7.061,0L226.982,270.354z"/>
		<path fill-rule="evenodd" clip-rule="evenodd" fill="#ED8F97" d="M179.167,303.186c1.158-0.715,0.528-1.925,0.8-2.886
			c1.889-0.084,3.571,0.211,2.037,2.573c-0.789,1.214,0.194,2.129-0.084,3.158c-1.519,0.627-2.977,0.88-4.15-0.661
			C178.235,304.642,178.701,303.915,179.167,303.186z"/>
		<path fill-rule="evenodd" clip-rule="evenodd" fill="#63A0D6" d="M247.039,303.354c0.115-0.893-0.359-1.956,0.594-2.587
			c0.191-0.127,1.007,0.22,1.105,0.499c0.559,1.591-0.636,1.809-1.752,2.04L247.039,303.354z"/>
		<path fill-rule="evenodd" clip-rule="evenodd" fill="#5094D1" d="M418.01,303.421c-0.771-0.449-1.995-0.486-1.82-1.828
			c0.131-1.01,1.125-0.989,1.797-1.345C419.407,301.295,418.533,302.36,418.01,303.421z"/>
		<path fill-rule="evenodd" clip-rule="evenodd" fill="#AACBE8" d="M283.192,259.572c2.243,0.147,1.856,2.131,2.441,3.321
			c0.623,1.269,0.141,2.332-1.42,2.378c-1.213,0.036-3.074,0.521-2.954-1.496C281.348,262.278,281.6,260.489,283.192,259.572z"/>
	</g>
</g>
<path fill="#FFFFFF" d="M233.333,264.833c-0.497,0-0.951,0.065-1.372,0.176c1.273-2.254,0.791-5.53-1.492-6.962
	c1.692-2.952,0.314-7.714-4.136-7.714c-5.398,0-6.274,7.003-2.636,9.286c-1.272,2.219-0.809,5.458,1.388,6.932
	c-2.25,2.857-1.003,8.282,3.748,8.282c0.866,0,1.603-0.194,2.236-0.507c0.638,0.318,1.389,0.507,2.264,0.507
	C239.782,274.833,239.782,264.833,233.333,264.833z"/>
<path fill="#FFFFFF" d="M292.717,264.985c0.535-2.626-0.795-5.699-3.997-6.103c1.554-2.959,0.149-7.549-4.221-7.549
	c-1.308,0-2.341,0.419-3.118,1.074c-0.281-0.044-0.572-0.074-0.882-0.074c-5.187,0-6.198,6.466-3.041,8.998
	c-0.631,0.701-1.042,1.578-1.206,2.515c-0.085-0.004-0.166-0.013-0.253-0.013c-6.449,0-6.449,10,0,10
	c2.797,0,4.379-1.882,4.75-4.012c0.084,0.003,0.165,0.012,0.25,0.012c1.672,0,2.903-0.677,3.708-1.673
	c-0.316,2.703,1.278,5.673,4.792,5.673C294.588,273.833,295.658,267.612,292.717,264.985z"/>
<path fill="#FFFFFF" d="M343.988,262.333c3.836-2.53,2.608-9-3.687-9c-0.221,0-0.433,0.01-0.642,0.025
	c-0.954-1.188-2.558-2.025-4.82-2.025c-0.281,0-0.55,0.018-0.812,0.042c-0.79-0.339-1.729-0.542-2.829-0.542
	c-6.782,0-7.682,7.507-2.708,9.51c-0.332,1.555,0.101,3.239,1.34,4.427c-5.119,1.923-4.259,9.563,2.582,9.563
	c3.04,0,4.893-1.51,5.571-3.355c0.678,0.221,1.443,0.355,2.317,0.355C346.597,271.333,347.824,264.864,343.988,262.333z"/>
<rect x="192" y="291" fill="#5799D4" width="238" height="20.333"/>
<text transform="matrix(1 0 0 1 192 304.3335)" fill="#FAFBEE" font-family="'Arial-BoldMT'" font-size="10">Strategies for Modeling and ARtificial inTelligence</text>
<path fill="#FFFFFF" d="M188.949,298.237c-0.063-1.599-0.78-3.166-2.163-4.048c-0.643-1.538-2.018-2.741-4.127-2.842
	c-0.802-1.046-2.061-1.764-3.784-1.764c-2.104,0-3.514,1.067-4.244,2.5h-0.006c-3.238,0-4.839,2.521-4.824,5.029
	c-0.699,1.3-0.819,2.921-0.363,4.332c-0.104,1.175,0.162,2.38,0.776,3.367c0.221,1.736,1.233,3.351,3.041,3.984
	c0.725,1.449,2.128,2.537,4.246,2.537c0.813,0,1.524-0.16,2.132-0.438c0.421,0.11,0.869,0.188,1.368,0.188
	c1.842,0,3.155-0.817,3.945-1.982c0.517-0.291,0.956-0.669,1.305-1.113c0.126-0.078,0.255-0.153,0.37-0.242
	c0.013-0.011,0.025-0.022,0.039-0.033c0.168-0.135,0.324-0.28,0.469-0.437c0.015-0.016,0.031-0.031,0.046-0.048
	c0.153-0.169,0.292-0.348,0.418-0.537c0.004-0.006,0.007-0.012,0.011-0.018c0.258-0.392,0.458-0.82,0.599-1.271
	c0-0.001,0-0.002,0.001-0.003c0.644-0.8,1.026-1.795,1.113-2.831C189.769,301.157,189.647,299.536,188.949,298.237z"/>
<g>
	<path fill-rule="evenodd" clip-rule="evenodd" fill="#EEECEE" d="M170.771,291.917c0.583,0.146,0.469-0.624,0.862-0.727
		c0.229,0,0.459-0.001,0.689-0.002l0.008,0.009c-0.004,0.41-0.591,0.447-0.522,0.904c-0.169,0.125-0.337,0.25-0.506,0.375
		c-0.301,0.167-0.796,0.124-0.698,0.719c-0.207,0.011-0.334,0.109-0.334,0.343c-0.003,0.065-0.007,0.131-0.011,0.196l-0.004,0.004
		c-0.898,0.024-1.175,0.624-1.21,1.447c-0.053,0.064-0.106,0.128-0.16,0.192c-0.344,0.12-0.375,0.405-0.343,0.722l-0.004,0.01
		c-0.525,0.067-0.56,0.568-0.679,0.933c-0.93,2.847-0.946,5.682,0.039,8.541c0.174,0.505,0.736,0.792,0.631,1.407
		c-0.23-0.122-0.46-0.242-0.689-0.363c-0.154-1.254-0.97-2.277-1.099-3.546c-0.175-1.729-0.182-3.413,0.355-5.112
		c0.292-0.926,0.628-1.833,0.937-2.752c0.179-0.532,0.68-0.798,0.987-1.231c0.379-0.534,0.819-1.02,1.233-1.526
		C170.582,292.445,170.752,292.262,170.771,291.917z"/>
	<path fill-rule="evenodd" clip-rule="evenodd" fill="#EEECEE" d="M181.634,312.424c-0.208,0.558-0.755,0.62-1.167,0.708
		c-2.755,0.592-5.378,0.06-7.882-1.21c-0.351-0.178-0.636-0.5-0.952-0.754l-0.001,0.001c0.056-0.059,0.111-0.118,0.167-0.177
		l0.011-0.01c0.287,0.06,0.575,0.118,0.862,0.177l0.004,0.003c0.175,0.28,0.446,0.164,0.685,0.186l0,0
		c0.269,0.848,0.958,0.678,1.563,0.713c0.055,0.002,0.109,0.006,0.164,0.015c0.035,0.382,0.32,0.485,0.6,0.521
		c0.7,0.089,1.405,0.189,2.106,0.184c0.367-0.003,0.884,0.309,1.101-0.329c0.342-0.138,0.688,0.284,1.028-0.008
		c0.366,0.06,0.69-0.117,1.031-0.202C181.13,312.506,181.397,312.4,181.634,312.424z"/>
	<path fill-rule="evenodd" clip-rule="evenodd" fill="#D7D7D8" d="M187.512,307.891c-0.562,0.236-0.49,1.005-0.961,1.295
		c-0.625,0.383-0.897,1.197-1.631,1.432c-0.404,0.237-0.809,0.475-1.212,0.712c-0.181-0.349,0.089-0.694,0.009-1.042l0.042-0.008
		c0.585-0.235,1.5,0.036,1.509-1.085c0.597-0.676,0.818-1.646,1.561-2.209c0.112-0.004,0.225-0.008,0.337-0.013
		c0.12,0.009,0.24,0.019,0.36,0.028C187.521,307.297,187.517,307.594,187.512,307.891z"/>
	<path fill-rule="evenodd" clip-rule="evenodd" fill="#EEECEE" d="M185.095,291.92c0.717-0.015,0.938,0.73,1.317,1.114
		c0.913,0.925,1.701,2.034,2.08,3.354c0.297,1.035,0.991,1.973,0.753,3.15c-0.236,0.205-0.191-0.202-0.346-0.176
		c-0.009-0.227-0.12-0.354-0.336-0.377c0.199-1.093-0.499-1.914-0.788-2.858c-0.344-1.125-0.962-2.033-1.996-2.576
		c0-0.117-0.001-0.234-0.001-0.351c-0.064-0.061-0.127-0.121-0.191-0.182c-0.05-0.06-0.1-0.12-0.151-0.179
		C185.445,292.483,184.982,292.319,185.095,291.92z"/>
	<path fill-rule="evenodd" clip-rule="evenodd" fill="#CAD0C6" d="M183.716,310.288c0.08,0.348-0.19,0.693-0.009,1.042
		c0,0,0.006,0.017,0.006,0.017c-0.271,0.03-0.623-0.123-0.7,0.343c-0.483-0.006-0.971-0.018-0.86,0.74h0.002
		c-0.053-0.002-0.107-0.002-0.161-0.001c-0.12-0.002-0.24-0.003-0.36-0.005c-0.237-0.023-0.504,0.083-0.683-0.182
		c-0.384-0.163-0.79-0.446-1.031,0.202c-0.34,0.292-0.686-0.13-1.028,0.007c-0.635-0.089-1.301,0.157-1.911-0.199
		c0.068-0.066,0.136-0.132,0.205-0.199c0.932-0.036,1.895,0.229,2.771-0.324c0.463,0.045,0.891-0.11,1.321-0.257
		C182.137,311.18,182.728,310.28,183.716,310.288z"/>
	<path fill-rule="evenodd" clip-rule="evenodd" fill="#F8F4F6" d="M175.43,289.555c0.311-0.645,0.929-0.46,1.417-0.529
		c1.786-0.253,3.507,0.296,5.252,0.556c0.166,0.024,0.21,0.183,0.231,0.339c-0.572-0.002-1.145-0.005-1.717-0.007
		c-0.058,0-0.116,0-0.174,0c-0.582-0.675-1.248-0.359-1.902-0.178c-1.004-0.432-1.962-0.009-2.933,0.177
		C175.546,289.793,175.488,289.674,175.43,289.555z"/>
	<path fill-rule="evenodd" clip-rule="evenodd" fill="#E5E8E7" d="M180.613,289.914c0.573,0.002,1.145,0.005,1.717,0.007
		l0.001,0.001c0.008,0.235,0.123,0.355,0.348,0.359c0.924-0.259,1.205,0.696,1.777,1.085c0.212,0.145,0.377,0.424,0.639,0.554
		c-0.113,0.399,0.35,0.563,0.34,0.92c-0.341,0.051-0.462-0.273-0.687-0.421c-0.781-0.511-1.371-1.398-2.412-1.415
		c-0.012-0.244-0.128-0.364-0.365-0.342c-0.11-0.004-0.219-0.008-0.329-0.012c-0.269-0.366-0.646-0.388-1.038-0.363l-0.002-0.002
		C180.606,290.161,180.609,290.038,180.613,289.914z"/>
	<path fill-rule="evenodd" clip-rule="evenodd" fill="#F2EFF0" d="M167.838,306.627c0.229,0.121,0.459,0.242,0.689,0.363
		c0.429,0.945,1.22,1.615,1.721,2.505c0.167,0.296,0.449,0.198,0.696,0.217c0.136,0.016,0.27,0.037,0.345,0.18
		c-0.101,0.507,0.342,0.728,0.52,1.089l-0.011,0.01c-0.056,0.059-0.111,0.118-0.167,0.177l0.001-0.001
		c-0.781-0.709-1.686-1.198-2.393-2.095C168.629,308.296,168.17,307.53,167.838,306.627z"/>
	<path fill-rule="evenodd" clip-rule="evenodd" fill="#EEECEE" d="M175.43,289.555c0.059,0.119,0.117,0.238,0.175,0.357
		c-0.5,0.066-0.991,0.147-1.219,0.721c-0.112,0.004-0.224,0.009-0.336,0.013c-0.628-0.006-1.072,0.623-1.719,0.551l-0.008-0.009
		c-0.024-0.315,0.25-0.473,0.346-0.726c0.029-0.083,0.064-0.241,0.088-0.24C173.714,290.292,174.473,289.479,175.43,289.555z"/>
	<path fill-rule="evenodd" clip-rule="evenodd" fill="#F8F4F6" d="M187.512,307.891c0.005-0.297,0.009-0.594,0.014-0.891
		c0.297-0.151,0.333-0.435,0.337-0.735c0.338-0.008,0.391-0.315,0.518-0.544c0.271-0.08,0.516-0.185,0.509-0.549
		c0.001-0.12,0.001-0.239,0.002-0.359c0.006-0.152,0.04-0.289,0.181-0.368c0.324,0.693,0.289,1.308-0.36,1.784
		c-0.068,0.05-0.212,0.118-0.209,0.124c0.396,0.934-0.641,1.127-0.816,1.759c-0.031,0.11-0.048,0.289-0.156,0.044
		C187.497,308.081,187.517,307.98,187.512,307.891z"/>
	<path fill-rule="evenodd" clip-rule="evenodd" fill="#F2EFF0" d="M188.899,299.363c0.154-0.026,0.109,0.381,0.346,0.176
		c0.236,0.039,0.339,0.187,0.338,0.435c-0.002,0.811,0.001,1.622-0.001,2.433c-0.002,0.355-0.168,0.562-0.514,0.588
		c-0.062,0-0.124-0.001-0.185-0.002c-0.004-0.057-0.01-0.113-0.017-0.169c0.012-0.186,0.023-0.37,0.035-0.555
		c0.375-0.618,0.372-1.88-0.004-2.361c-0.002-0.059-0.006-0.117-0.012-0.175C188.89,299.609,188.895,299.486,188.899,299.363z"/>
	<path fill-rule="evenodd" clip-rule="evenodd" fill="#F8F4F6" d="M183.707,311.329c0.404-0.237,0.808-0.475,1.212-0.712
		c0.202,0.733-0.13,1.085-1.204,1.276c-0.001-0.182-0.002-0.365-0.002-0.547L183.707,311.329z"/>
	<path fill-rule="evenodd" clip-rule="evenodd" fill="#EEECEE" d="M182.153,312.43c-0.111-0.758,0.376-0.747,0.86-0.74
		c0.003,0.128,0.007,0.255,0.011,0.383C182.907,312.66,182.463,312.364,182.153,312.43z"/>
	<path fill-rule="evenodd" clip-rule="evenodd" fill="#F2EFF0" d="M183.025,312.073c-0.004-0.128-0.008-0.255-0.011-0.383
		c0.077-0.467,0.428-0.314,0.699-0.344c0,0.182,0.001,0.365,0.002,0.547C183.534,312.159,183.263,312.05,183.025,312.073z"/>
	<path fill-rule="evenodd" clip-rule="evenodd" fill="#F8F4F6" d="M172.667,290.462c-0.095,0.253-0.37,0.411-0.346,0.726
		c-0.23,0-0.459,0.001-0.689,0.002C171.878,290.791,172.139,290.416,172.667,290.462z"/>
	<path fill-rule="evenodd" clip-rule="evenodd" fill="#F2EFF0" d="M189.072,304.445c-0.141,0.079-0.174,0.216-0.181,0.368
		c-0.25-0.196-0.142-0.486-0.174-0.739c0.174-0.139,0.152-0.336,0.14-0.529c0.07-0.001,0.14-0.003,0.21-0.005
		C189.441,303.839,189.026,304.144,189.072,304.445z"/>
	<path fill-rule="evenodd" clip-rule="evenodd" fill="#F8F4F6" d="M170.771,291.917c-0.018,0.345-0.188,0.528-0.519,0.542
		C170.267,292.112,170.439,291.931,170.771,291.917z"/>
	<path fill-rule="evenodd" clip-rule="evenodd" fill="#E5E8E7" d="M189.068,303.539c-0.07,0.002-0.141,0.004-0.21,0.005
		c-0.191-0.193-0.195-0.378,0.024-0.552c0.062,0,0.124,0.001,0.186,0.002C189.068,303.176,189.068,303.358,189.068,303.539z"/>
	<path fill-rule="evenodd" clip-rule="evenodd" fill="#F8F4F6" d="M182.68,290.281c-0.225-0.003-0.339-0.124-0.348-0.359
		C182.56,289.922,182.674,290.043,182.68,290.281z"/>
	<path fill-rule="evenodd" clip-rule="evenodd" fill="#EEECEE" d="M181.994,312.429c0.054-0.001,0.108-0.001,0.161,0.001
		C182.101,312.571,182.047,312.564,181.994,312.429z"/>
	<path fill-rule="evenodd" clip-rule="evenodd" fill="#C7BBB7" d="M168.883,295.377c0.053-0.064,0.106-0.128,0.16-0.192
		c0.563-0.334,0.87-0.906,1.21-1.447l0.004-0.004c0.121-0.058,0.121-0.123,0.011-0.196c0-0.234,0.127-0.332,0.334-0.343
		c0.403-0.057,0.632-0.299,0.698-0.719c0.169-0.125,0.337-0.25,0.506-0.375c0.284-0.065,0.568-0.131,0.853-0.196
		c0.064,0.068,0.128,0.136,0.193,0.204c-0.117,0.628-0.85,0.566-1.079,1.067c-0.431,0.341-0.956,0.596-1.027,1.261
		c-0.648,0.197-0.866,0.829-1.145,1.352c-0.302,0.566-0.835,1.107-0.493,1.877c-0.931,0.322-0.556,1.227-0.757,1.875
		c-0.031,0.058-0.062,0.116-0.092,0.173c-0.013,0.125-0.026,0.25-0.039,0.375c-0.102,0.723-0.088,1.448-0.01,2.172
		c-0.078,0.499,0.302,0.956,0.117,1.464c-0.164-0.002-0.327-0.005-0.49-0.008c-0.244-2.14-0.295-4.261,0.321-6.363
		c0.122-0.414,0.506-0.75,0.377-1.244l0.004-0.01C168.841,295.957,168.891,295.683,168.883,295.377z"/>
	<path fill-rule="evenodd" clip-rule="evenodd" fill="#D7D7D8" d="M168.537,296.11c0.129,0.494-0.255,0.83-0.377,1.244
		c-0.617,2.102-0.565,4.223-0.321,6.363c0.063,0.326-0.206,0.786,0.334,0.92c0.253,1.264,0.758,2.343,1.629,3.319
		c0.429,0.48,1.006,1.002,1.144,1.757c-0.247-0.02-0.53,0.079-0.696-0.217c-0.501-0.89-1.292-1.56-1.721-2.505
		c0.104-0.615-0.457-0.902-0.631-1.407c-0.985-2.859-0.968-5.693-0.039-8.541C167.977,296.678,168.011,296.177,168.537,296.11z"/>
	<path fill-rule="evenodd" clip-rule="evenodd" fill="#D7D7D8" d="M172.66,291.905c-0.284,0.065-0.568,0.131-0.853,0.196
		c-0.069-0.457,0.518-0.494,0.522-0.904c0.647,0.071,1.091-0.558,1.719-0.551c-0.005,0.296-0.004,0.705-0.365,0.654
		C173.147,291.224,172.977,291.665,172.66,291.905z"/>
	<path fill-rule="evenodd" clip-rule="evenodd" fill="#D7D7D8" d="M170.253,293.739c-0.341,0.541-0.647,1.112-1.21,1.447
		C169.079,294.363,169.355,293.763,170.253,293.739z"/>
	<path fill-rule="evenodd" clip-rule="evenodd" fill="#D7D7D8" d="M171.301,292.476c-0.066,0.419-0.295,0.662-0.698,0.719
		C170.505,292.6,171,292.643,171.301,292.476z"/>
	<path fill-rule="evenodd" clip-rule="evenodd" fill="#D7D7D8" d="M168.883,295.377c0.008,0.305-0.042,0.579-0.343,0.722
		C168.508,295.782,168.539,295.498,168.883,295.377z"/>
	<path fill-rule="evenodd" clip-rule="evenodd" fill="#D7D7D8" d="M170.269,293.538c0.11,0.073,0.11,0.139-0.011,0.196
		C170.262,293.669,170.266,293.604,170.269,293.538z"/>
	<path fill-rule="evenodd" clip-rule="evenodd" fill="#C7BBB7" d="M170.945,309.713c-0.137-0.755-0.714-1.277-1.144-1.757
		c-0.871-0.976-1.375-2.055-1.629-3.319c0.063-0.191,0.127-0.382,0.19-0.572c0.188,0.27,0.273,0.595,0.407,0.882
		c0.695,1.494,1.102,3.256,2.872,3.874c0.013,0.172,0.025,0.345,0.038,0.517c0.093-0.047,0.187-0.095,0.28-0.142
		c0.537,1.24,1.8,1.388,2.744,2.015c0.435,0.286,0.917,0.413,1.422,0.457c0.112,0.011,0.225,0.022,0.337,0.034
		c0.206,0.197,0.559,0.06,0.723,0.352c-0.068,0.066-0.136,0.132-0.205,0.199c-0.608-0.345-1.278,0.053-1.896-0.176
		c-0.055-0.008-0.109-0.013-0.165-0.015c-0.438-0.439-0.911-0.792-1.562-0.713l0,0c-0.1-0.584-0.414-0.295-0.685-0.186l-0.004-0.003
		c-0.036-0.189,0.245-0.485-0.155-0.552c-0.494-0.082-0.794-0.521-1.227-0.714C171.214,309.75,171.081,309.729,170.945,309.713z"/>
	<path fill-rule="evenodd" clip-rule="evenodd" fill="#D7D7D8" d="M175.086,312.076c0.617,0.229,1.288-0.169,1.896,0.176
		c0.61,0.355,1.276,0.109,1.911,0.199c-0.217,0.638-0.734,0.326-1.101,0.33c-0.702,0.006-1.407-0.095-2.106-0.184
		C175.406,312.562,175.121,312.458,175.086,312.076z"/>
	<path fill-rule="evenodd" clip-rule="evenodd" fill="#D7D7D8" d="M171.29,309.893c0.433,0.192,0.732,0.632,1.227,0.714
		c0.4,0.067,0.119,0.363,0.155,0.552c-0.287-0.059-0.575-0.118-0.862-0.177C171.632,310.621,171.189,310.4,171.29,309.893z"/>
	<path fill-rule="evenodd" clip-rule="evenodd" fill="#D7D7D8" d="M173.359,311.349c0.651-0.08,1.124,0.274,1.562,0.713
		C174.317,312.026,173.628,312.196,173.359,311.349z"/>
	<path fill-rule="evenodd" clip-rule="evenodd" fill="#D7D7D8" d="M179.921,312.444c0.241-0.648,0.646-0.365,1.031-0.202
		C180.611,312.327,180.287,312.503,179.921,312.444z"/>
	<path fill-rule="evenodd" clip-rule="evenodd" fill="#D7D7D8" d="M172.675,311.163c0.271-0.109,0.584-0.398,0.685,0.186
		C173.121,311.327,172.85,311.442,172.675,311.163z"/>
	<path fill-rule="evenodd" clip-rule="evenodd" fill="#FEFEFE" d="M171.631,311.169c0.056-0.059,0.111-0.118,0.167-0.177
		C171.742,311.051,171.687,311.11,171.631,311.169z"/>
	<path fill-rule="evenodd" clip-rule="evenodd" fill="#D30329" d="M176.463,311.702c-0.112-0.011-0.225-0.022-0.337-0.034
		c-0.143-0.45-0.885-0.295-0.756-1.043c-0.292,0.257-0.479,0.422-0.667,0.586c-0.944-0.627-2.207-0.775-2.744-2.015
		c0.006-0.13,0.012-0.259,0.017-0.389c0.125-0.022,0.272-0.017,0.263-0.217c-0.001-0.02-0.034-0.055-0.053-0.056
		c-0.189-0.013-0.187,0.142-0.209,0.273c-0.112,0.005-0.224,0.009-0.336,0.014c-1.771-0.618-2.177-2.38-2.872-3.874
		c-0.134-0.287-0.22-0.612-0.407-0.882c-0.011-0.113-0.022-0.227-0.034-0.34c0.186-0.508-0.194-0.965-0.117-1.464
		c0.514-0.116,0.146-0.683,0.361-0.86c0.947-0.783,0.053-0.964-0.351-1.312c0.013-0.125,0.026-0.25,0.039-0.375
		c0.031-0.058,0.062-0.115,0.092-0.173c0.201-0.648-0.174-1.553,0.757-1.875c-0.342-0.77,0.191-1.311,0.493-1.877
		c0.279-0.523,0.497-1.155,1.145-1.352c0.066,0.066,0.133,0.131,0.2,0.196c0.337,0.548,0.675,1.096,1.013,1.644
		c0.008,0.058,0.012,0.117,0.012,0.176c-0.477,1.353,0.014,2.502,0.687,3.614c0.003,0.371,0.005,0.742,0.008,1.113
		c-0.651-0.127-1.234-0.411-1.755,0.486c-0.343,0.591-0.181,0.971,0.034,1.356c0.266,0.477,0.749,0.461,1.202,0.219
		c0.193-0.103,0.285-0.396,0.625-0.33c0.021,0.624-0.246,1.256-0.047,1.892c0.261-0.129-0.052-0.579,0.326-0.632
		c0.22,0.392,0.22,0.392,0.178,0.812c-0.063,0.646,0.381,1.2,1.033,1.278c0.194,0.023,0.433-0.063,0.567,0.127
		c0.583,0.823,1.274,0.58,1.982,0.253c0.171-0.003,0.342-0.007,0.513-0.01c1.37,0.403,2.611,0.087,3.759-0.746
		c0.072-0.056,0.143-0.112,0.214-0.168c0.595-0.22,0.883-0.774,1.237-1.256c0.36,0.002,0.508-0.274,0.653-0.553
		c0.283-0.519,0.535-1.016,1.269-0.931c0.708,0.083,0.475-0.644,0.548-0.988c0.095-0.446-0.347-0.544-0.691-0.555
		c-0.25-0.007-0.501,0.073-0.752,0.114c-0.022-0.127-0.044-0.255-0.066-0.383c0.039-0.165,0.062-0.328-0.062-0.468
		c0.057-0.103,0.047-0.186-0.063-0.239c0.044-0.039,0.089-0.078,0.134-0.116c0.258-0.682,0.735-1.278,0.735-2.063
		c0.182-0.153,0.184-0.37,0.167-0.58c-0.074-0.914,0.205-1.858-0.298-2.74c-0.136-0.239-0.157-0.654,0.194-0.886
		c0.21-0.139,0.407-0.127,0.507,0.104c0.272,0.632,1.064,0.428,1.382,0.976c0.016,0.027,0.109,0.004,0.167,0.005
		c0.315,0.161,0.563,0.384,0.639,0.766c-0.165,0.276-0.191,0.582-0.172,0.896c-0.124,0.024-0.271,0.02-0.26,0.218
		c0.001,0.021,0.034,0.055,0.053,0.057c0.189,0.012,0.184-0.144,0.207-0.274c0.233-0.004,0.339-0.139,0.348-0.374
		c0.656,0.855,0.863,1.882,1.013,2.93c-0.477,0.834-0.458,2.298,0.035,2.91c-0.07,0.791,0.016,1.609-0.377,2.341
		c-0.668-0.104-0.561,0.849-1.217,0.92c0.586-0.123,0.54,0.234,0.546,0.544c0.229,0.444-0.513,0.475-0.343,0.894
		c-0.742,0.563-0.963,1.534-1.561,2.209c-0.666,0.11-1.014,0.709-1.509,1.085l-0.042,0.008c-0.989-0.007-1.58,0.892-2.438,1.185
		c-0.43,0.147-0.858,0.302-1.321,0.257c-0.366-0.056-0.733-0.104-1.098-0.168C178.05,311.417,177.238,311.187,176.463,311.702z
		 M185.163,302.863c0.048,0.022,0.107,0.072,0.141,0.058c0.035-0.014,0.045-0.093,0.066-0.143c-0.048-0.022-0.107-0.073-0.141-0.058
		C185.194,302.733,185.184,302.812,185.163,302.863z"/>
	<path fill-rule="evenodd" clip-rule="evenodd" fill="#C7BBB7" d="M186.828,306.985c-0.169-0.418,0.573-0.45,0.343-0.894
		c0.391-0.403,0.481-0.958,0.67-1.464c0.394-0.732,0.308-1.551,0.377-2.342c0.062-0.066,0.123-0.133,0.185-0.2
		c0.253,0.177-0.001,0.706,0.461,0.738c0.007,0.056,0.013,0.113,0.017,0.169c-0.22,0.174-0.216,0.358-0.025,0.552
		c0.012,0.193,0.034,0.39-0.141,0.529c-0.479,0.236-0.323,0.699-0.354,1.096c-0.058,0.121-0.116,0.241-0.174,0.361
		c-0.114,0-0.229,0.001-0.343,0.001c-0.227,0.48-0.454,0.96-0.681,1.44C187.053,306.977,186.94,306.98,186.828,306.985z"/>
	<path fill-rule="evenodd" clip-rule="evenodd" fill="#CAD0C6" d="M183.759,310.279c0.495-0.375,0.843-0.975,1.509-1.085
		C185.258,310.315,184.344,310.044,183.759,310.279z"/>
	<path fill-rule="evenodd" clip-rule="evenodd" fill="#CAD0C6" d="M187.166,306.972c0.227-0.48,0.454-0.96,0.681-1.44
		c0.006,0.244,0.011,0.489,0.017,0.733c-0.005,0.3-0.041,0.583-0.337,0.735C187.406,306.991,187.286,306.981,187.166,306.972z"/>
	<path fill-rule="evenodd" clip-rule="evenodd" fill="#C7BBB7" d="M182.336,291.004c1.041,0.017,1.631,0.904,2.412,1.415
		c0.225,0.147,0.346,0.472,0.687,0.421c0.05,0.06,0.101,0.12,0.151,0.179c0.064,0.061,0.127,0.121,0.191,0.182
		c0,0.117,0.001,0.234,0.001,0.351c-0.128,0.006-0.258,0.013-0.387,0.02c-0.245-0.197-0.488-0.396-0.735-0.59
		c-0.493-0.386-0.923-0.896-1.606-0.908c-0.737-0.871-1.723-1.044-2.755-1.093c-0.251-0.681-0.701-0.141-1.023-0.137
		c-1.168,0.015-2.354-0.301-3.506,0.139c-0.054-0.552,0.187-0.741,0.702-0.707c0.708,0.047,1.402-0.083,2.072-0.336
		c0.223-0.002,0.446-0.005,0.67-0.008c0.091,0.194-0.302,0.375-0.085,0.484c0.227,0.116,0.564,0.125,0.628-0.305
		c0.111,0.003,0.223,0.006,0.334,0.009c0.131,0.195,0.328,0.163,0.515,0.165c0,0,0.002,0.002,0.003,0.002
		c0.179,0.648,0.691,0.242,1.037,0.363c0.11,0.004,0.219,0.008,0.329,0.012C181.994,290.893,182.11,291.013,182.336,291.004z"/>
	<path fill-rule="evenodd" clip-rule="evenodd" fill="#CAD0C6" d="M185.392,293.571c0.129-0.006,0.258-0.013,0.387-0.02
		c1.034,0.542,1.652,1.451,1.996,2.576c0.289,0.944,0.987,1.766,0.788,2.859c-0.013,0.245-0.109,0.438-0.315,0.562
		c-0.021-0.057-0.042-0.115-0.063-0.172c-0.15-1.048-0.357-2.075-1.013-2.93c-0.099-0.159,0.218-0.474-0.176-0.523
		c-0.076-0.382-0.324-0.605-0.639-0.766C186.21,294.51,185.699,294.11,185.392,293.571z"/>
	<path fill-rule="evenodd" clip-rule="evenodd" fill="#D7D7D8" d="M188.248,299.548c0.207-0.124,0.302-0.317,0.315-0.562
		c0.216,0.022,0.327,0.149,0.336,0.376c-0.005,0.123-0.01,0.246-0.015,0.369c-0.373-0.03-0.284,0.389-0.473,0.539
		C188.282,300.048,188.145,299.829,188.248,299.548z"/>
	<path fill-rule="evenodd" clip-rule="evenodd" fill="#E5E8E7" d="M185.777,293.201c-0.063-0.061-0.127-0.121-0.191-0.182
		C185.65,293.08,185.713,293.141,185.777,293.201z"/>
	<path fill-rule="evenodd" clip-rule="evenodd" fill="#C51D39" d="M176.463,311.702c0.774-0.515,1.586-0.285,2.396-0.14
		c0.364,0.065,0.731,0.113,1.098,0.168c-0.877,0.552-1.84,0.288-2.771,0.324C177.022,311.761,176.669,311.898,176.463,311.702z"/>
	<path fill-rule="evenodd" clip-rule="evenodd" fill="#D7D7D8" d="M178.541,289.94c-0.67,0.252-1.364,0.383-2.072,0.336
		c-0.515-0.034-0.756,0.154-0.702,0.707c-0.169,0.008-0.338,0.017-0.508,0.025c-0.172-0.432-0.543-0.351-0.874-0.375
		c0.228-0.574,0.72-0.655,1.219-0.721c0.971-0.186,1.929-0.609,2.933-0.177C178.539,289.804,178.54,289.872,178.541,289.94z"/>
	<path fill-rule="evenodd" clip-rule="evenodd" fill="#E5E8E7" d="M178.541,289.94c-0.001-0.068-0.002-0.136-0.003-0.205
		c0.654-0.182,1.32-0.497,1.902,0.178c-0.148,0.012-0.284,0.046-0.352,0.207c-0.111-0.003-0.223-0.006-0.334-0.009
		c-0.181-0.06-0.362-0.119-0.543-0.179C178.987,289.935,178.764,289.938,178.541,289.94z"/>
	<path fill-rule="evenodd" clip-rule="evenodd" fill="#D7D7D8" d="M180.088,290.12c0.068-0.161,0.204-0.195,0.352-0.207
		c0.058,0,0.116,0,0.174,0c-0.004,0.124-0.007,0.248-0.011,0.372C180.416,290.283,180.219,290.315,180.088,290.12z"/>
	<path fill-rule="evenodd" clip-rule="evenodd" fill="#D7D7D8" d="M181.643,290.65c-0.346-0.122-0.858,0.285-1.037-0.363
		C180.997,290.263,181.374,290.285,181.643,290.65z"/>
	<path fill-rule="evenodd" clip-rule="evenodd" fill="#D7D7D8" d="M182.336,291.004c-0.227,0.009-0.342-0.112-0.365-0.342
		C182.208,290.641,182.324,290.761,182.336,291.004z"/>
	<path fill-rule="evenodd" clip-rule="evenodd" fill="#CAD0C6" d="M174.385,290.633c0.33,0.025,0.702-0.057,0.874,0.375
		c-0.059,0.069-0.118,0.138-0.177,0.208c-0.331-0.073-0.593,0.103-0.871,0.247c-0.445,0.231-0.839,0.586-1.357,0.646
		c-0.064-0.068-0.128-0.135-0.193-0.204c0.316-0.24,0.487-0.681,1.024-0.605c0.36,0.051,0.359-0.357,0.365-0.654
		C174.161,290.642,174.273,290.637,174.385,290.633z"/>
	<path fill-rule="evenodd" clip-rule="evenodd" fill="#E5E8E7" d="M188.364,305.169c0.03-0.397-0.125-0.859,0.354-1.096
		c0.032,0.253-0.077,0.543,0.174,0.739c0,0.12-0.001,0.239-0.002,0.359C188.714,305.171,188.539,305.17,188.364,305.169z"/>
	<path fill-rule="evenodd" clip-rule="evenodd" fill="#E5E8E7" d="M187.863,306.265c-0.005-0.244-0.011-0.489-0.017-0.733
		c0.114,0,0.229-0.001,0.343-0.001c0.063,0.063,0.127,0.126,0.191,0.189C188.253,305.95,188.201,306.257,187.863,306.265z"/>
	<path fill-rule="evenodd" clip-rule="evenodd" fill="#F2EFF0" d="M188.38,305.721c-0.063-0.063-0.127-0.126-0.191-0.189
		c0.058-0.121,0.116-0.241,0.174-0.362c0.175,0,0.35,0.001,0.525,0.002C188.896,305.536,188.651,305.641,188.38,305.721z"/>
	<path fill-rule="evenodd" clip-rule="evenodd" fill="#CAD0C6" d="M188.412,300.271c0.188-0.15,0.1-0.569,0.473-0.539
		c0.006,0.059,0.01,0.117,0.012,0.175c0.001,0.787,0.003,1.574,0.004,2.361c-0.012,0.185-0.023,0.37-0.035,0.555
		c-0.463-0.032-0.208-0.561-0.462-0.738C188.407,301.48,188.41,300.875,188.412,300.271z"/>
	<path fill-rule="evenodd" clip-rule="evenodd" fill="#E5E8E7" d="M188.901,302.268c-0.001-0.787-0.003-1.574-0.004-2.361
		C189.273,300.388,189.276,301.65,188.901,302.268z"/>
	<path fill-rule="evenodd" clip-rule="evenodd" fill="#D30D31" d="M172.853,292.109c0.519-0.06,0.912-0.415,1.357-0.646
		c0.278-0.145,0.541-0.32,0.871-0.247c-0.068,0.768-0.778,0.859-1.197,1.258c-0.454,0.563-0.993,1.061-1.221,1.794
		c-0.492,0.57-0.555,1.306-0.704,2.009c-0.338-0.548-0.676-1.096-1.014-1.644c1.078,0.018,0.834-0.794,0.828-1.458
		C172.003,292.675,172.736,292.737,172.853,292.109z"/>
	<path fill-rule="evenodd" clip-rule="evenodd" fill="#E90737" d="M168.222,300.089c0.404,0.348,1.298,0.528,0.351,1.312
		c-0.214,0.177,0.153,0.744-0.361,0.86C168.134,301.537,168.12,300.812,168.222,300.089z"/>
	<path fill-rule="evenodd" clip-rule="evenodd" fill="#E90737" d="M171.774,293.176c0.006,0.664,0.25,1.476-0.828,1.458
		c-0.066-0.066-0.133-0.131-0.199-0.197C170.818,293.772,171.343,293.517,171.774,293.176z"/>
	<path fill-rule="evenodd" clip-rule="evenodd" fill="#CAD0C6" d="M168.329,303.725c0.011,0.113,0.022,0.227,0.034,0.34
		c-0.063,0.19-0.126,0.381-0.19,0.572c-0.54-0.135-0.271-0.594-0.334-0.92C168.002,303.719,168.165,303.722,168.329,303.725z"/>
	<path fill-rule="evenodd" clip-rule="evenodd" fill="#E90737" d="M168.353,299.541c-0.031,0.058-0.062,0.116-0.092,0.173
		C168.291,299.657,168.322,299.599,168.353,299.541z"/>
	<path fill-rule="evenodd" clip-rule="evenodd" fill="#C51D39" d="M174.704,311.211c0.187-0.165,0.374-0.329,0.667-0.586
		c-0.129,0.748,0.613,0.594,0.756,1.043C175.621,311.624,175.139,311.497,174.704,311.211z"/>
	<path fill-rule="evenodd" clip-rule="evenodd" fill="#E90737" d="M171.977,308.807c-0.005,0.13-0.011,0.259-0.017,0.389
		c-0.093,0.047-0.187,0.094-0.28,0.142c-0.013-0.172-0.025-0.345-0.038-0.517C171.753,308.816,171.866,308.812,171.977,308.807
		L171.977,308.807z"/>
	<path fill-rule="evenodd" clip-rule="evenodd" fill="#F8F4F6" d="M183.494,301.164c0.022,0.128,0.044,0.256,0.066,0.383
		l-0.067-0.015c-0.275,0.187-0.484-0.418-0.725-0.101c-0.217,0.287,0.071,0.552,0.165,0.82c0.087,0.25,0.177,0.499,0.266,0.748
		c0.105,0.305-0.408,0.6-0.012,0.908c-0.145,0.279-0.292,0.556-0.653,0.553c-0.676,0.131-1.309,0.31-1.237,1.256
		c-0.071,0.056-0.142,0.112-0.214,0.168c-0.426,0.022-0.839,0.13-1.255,0.209c-0.839,0.16-1.591,0.787-2.504,0.537
		c-0.171,0.003-0.342,0.006-0.513,0.01c-0.104-0.238-0.277-0.373-0.526-0.395c-0.099-0.232-0.28-0.329-0.511-0.344
		c-0.118-0.479-0.765-0.934-0.06-1.45c0.32,0.056,0.357,0.547,0.729,0.525c0.074,0.215,0.23,0.195,0.395,0.152
		c0.669,0.44,2.249,0.359,2.883-0.148c0.282-0.074,0.58,0.425,0.841-0.002c0.328-0.536,0.076-1.01-0.64-1.253
		c-0.271,0.032-0.638-0.136-0.688,0.361l-0.003,0.004c-0.21-0.169-1.156,0.39-0.536-0.6c0.3-0.473,0.583-0.961,1.052-1.281
		c0.39,0.141,0.78,0.282,1.254,0.454c-0.122-0.671-0.609-0.989-0.759-1.496c0.018-0.054,0.036-0.108,0.053-0.163
		c0.487-0.133,0.505-0.603,0.797-1.181c-0.658,0.441-1.196,0.168-1.703,0.318c-0.209-0.071-0.121-0.53-0.479-0.404
		c-0.296,0-0.591,0-0.887-0.001c-0.197-0.211-0.418-0.415-0.176-0.742c0.329-0.266,0.844-0.236,1.032-0.723
		c0.997-0.258,1.979-0.241,2.937,0.182c0.024,0.014,0.048,0.027,0.072,0.041c-0.023-0.014-0.047-0.028-0.071-0.042
		c0.344-0.439,0.433-0.121,0.518,0.195c0.164,0.606,0.317,0.094,0.476-0.003c0.15,0.216,0.288,0.437,0.265,0.724
		c-0.208,0.341,0.199,0.583,0.131,0.902c-0.136,0.08-0.235,0.242-0.136,0.345c0.133,0.137,0.169-0.152,0.296-0.159
		c0.11,0.053,0.12,0.136,0.063,0.239C183.378,300.863,183.359,301.025,183.494,301.164z"/>
	<path fill-rule="evenodd" clip-rule="evenodd" fill="#E24F6C" d="M171.96,296.277c0.149-0.703,0.212-1.439,0.704-2.009
		c0.044,0.38,0.311,0.365,0.577,0.373c3.492,0.096,6.99-0.212,10.477,0.178c0.233,0.253,0.28,0.583,0.339,0.908
		c-0.585-0.09-1.027,0.606-1.625,0.358c-0.773-0.321-1.568-0.121-2.351-0.172c-0.629,0.009-1.259,0.018-1.889,0.027
		c-0.825-0.407-1.584,0.296-2.393,0.157c-0.194-0.034-0.424,0.196-0.57,0.014c-0.563-0.708-1.034-0.383-1.488,0.118
		c-0.242,0.266-0.523,0.315-0.753,0.079c-0.428-0.438-0.701-0.065-1.017,0.145C171.972,296.394,171.968,296.335,171.96,296.277z"/>
	<path fill-rule="evenodd" clip-rule="evenodd" fill="#D30D31" d="M176.284,306.246c0.25,0.022,0.423,0.157,0.526,0.395
		c-0.708,0.327-1.399,0.57-1.982-0.253c-0.134-0.19-0.373-0.104-0.567-0.127c-0.651-0.078-1.096-0.632-1.033-1.278
		c0.042-0.42,0.042-0.42-0.178-0.812c-0.378,0.053-0.065,0.503-0.326,0.632c-0.198-0.636,0.068-1.269,0.047-1.892
		c-0.339-0.066-0.431,0.227-0.625,0.33c-0.453,0.243-0.936,0.258-1.202-0.219c-0.215-0.385-0.377-0.765-0.034-1.356
		c0.521-0.896,1.104-0.613,1.755-0.486c0.018,0.396-0.053,0.828,0.393,1.046c0.354,0.674,0.191,1.617,0.974,2.069
		c0.049,0.062,0.099,0.124,0.148,0.186c-0.024,0.399,0.342,0.498,0.518,0.743c0.055,0.183,0.166,0.299,0.351,0.329l0.021,0.019
		C175.074,306.594,175.803,306.174,176.284,306.246z"/>
	<path fill-rule="evenodd" clip-rule="evenodd" fill="#E13053" d="M171.972,296.453c0.316-0.21,0.589-0.583,1.017-0.145
		c0.23,0.236,0.511,0.188,0.753-0.079c0.455-0.501,0.925-0.827,1.488-0.118c0.146,0.183,0.376-0.048,0.57-0.014
		c-0.043,0.105-0.057,0.26-0.133,0.309c-1.193,0.776-2.057,1.809-2.365,3.288c-0.04,0.01-0.079,0.02-0.118,0.031
		c-0.246-0.006-0.501-0.027-0.526,0.342C171.985,298.956,171.495,297.806,171.972,296.453z"/>
	<path fill-rule="evenodd" clip-rule="evenodd" fill="#D30D31" d="M184.057,295.728c-0.06-0.325-0.106-0.655-0.339-0.908
		c-0.346-0.648-0.525-1.417-1.188-1.837c-0.069-0.165-0.138-0.33-0.206-0.495c0.003-0.129,0.006-0.259,0.01-0.389l0.003-0.003
		c0.238-0.007,0.476-0.015,0.714-0.022c0.683,0.013,1.113,0.523,1.606,0.909c0.247,0.194,0.49,0.393,0.735,0.59
		c0.307,0.539,0.818,0.939,0.964,1.585c-0.058,0-0.151,0.022-0.167-0.005c-0.318-0.548-1.11-0.344-1.382-0.976
		c-0.1-0.231-0.297-0.243-0.507-0.104c-0.351,0.232-0.33,0.647-0.194,0.886c0.503,0.882,0.224,1.827,0.298,2.74
		c0.017,0.21,0.015,0.427-0.167,0.58c-0.002-0.179-0.004-0.357-0.007-0.536C184.229,297.066,184.31,296.381,184.057,295.728z"/>
	<path fill-rule="evenodd" clip-rule="evenodd" fill="#D30D31" d="M183.186,303.907c-0.396-0.308,0.118-0.603,0.012-0.908
		c0.249-0.455,0.329-0.948,0.294-1.467l0.067,0.015c0.251-0.041,0.502-0.121,0.752-0.114c0.344,0.01,0.786,0.109,0.691,0.555
		c-0.073,0.345,0.161,1.071-0.548,0.988C183.721,302.891,183.469,303.389,183.186,303.907z"/>
	<path fill-rule="evenodd" clip-rule="evenodd" fill="#E90737" d="M184.23,297.743c0.002,0.179,0.005,0.357,0.007,0.536
		c0,0.784-0.477,1.38-0.735,2.063c-0.098-0.023-0.197-0.046-0.294-0.07c0.068-0.318-0.34-0.561-0.131-0.902
		c0.083-0.011,0.167-0.022,0.251-0.033C183.183,298.525,183.882,298.244,184.23,297.743z"/>
	<path fill-rule="evenodd" clip-rule="evenodd" fill="#E90737" d="M188.412,300.271c-0.002,0.604-0.005,1.21-0.008,1.815
		c-0.062,0.067-0.123,0.133-0.185,0.2c-0.494-0.611-0.512-2.075-0.035-2.909c0.021,0.058,0.042,0.115,0.063,0.172
		C188.145,299.829,188.282,300.048,188.412,300.271z"/>
	<path fill-rule="evenodd" clip-rule="evenodd" fill="#E5E8E7" d="M177.324,306.631c0.913,0.25,1.665-0.377,2.504-0.537
		c0.416-0.079,0.829-0.188,1.255-0.209C179.935,306.718,178.694,307.034,177.324,306.631z"/>
	<path fill-rule="evenodd" clip-rule="evenodd" fill="#E90737" d="M172.658,300.067c0.025-0.37,0.28-0.348,0.526-0.342
		c-0.022,0.187-0.264,0.322-0.118,0.549c-0.003,0.651-0.005,1.302-0.008,1.953c-0.445-0.218-0.375-0.65-0.393-1.046
		C172.664,300.809,172.661,300.438,172.658,300.067z"/>
	<path fill-rule="evenodd" clip-rule="evenodd" fill="#E5E8E7" d="M181.296,305.717c-0.072-0.947,0.561-1.125,1.237-1.256
		C182.179,304.942,181.891,305.497,181.296,305.717z"/>
	<path fill-rule="evenodd" clip-rule="evenodd" fill="#E90737" d="M187.842,304.627c-0.189,0.506-0.28,1.061-0.67,1.464
		c-0.007-0.31,0.04-0.667-0.546-0.544C187.281,305.476,187.174,304.522,187.842,304.627z"/>
	<path fill-rule="evenodd" clip-rule="evenodd" fill="#E90737" d="M186.995,295.923c0.394,0.049,0.077,0.364,0.176,0.523
		c-0.009,0.235-0.114,0.37-0.348,0.374l0-0.001C186.804,296.504,186.83,296.199,186.995,295.923z"/>
	<path fill-rule="evenodd" clip-rule="evenodd" fill="#E5E8E7" d="M183.208,300.271c0.098,0.023,0.196,0.046,0.294,0.07
		c-0.045,0.039-0.089,0.077-0.134,0.116c-0.127,0.007-0.164,0.296-0.296,0.159C182.973,300.513,183.072,300.351,183.208,300.271z"/>
	<path fill-rule="evenodd" clip-rule="evenodd" fill="#E90737" d="M186.823,296.82c-0.023,0.13-0.018,0.286-0.207,0.274
		c-0.02-0.001-0.052-0.036-0.053-0.057C186.551,296.838,186.699,296.843,186.823,296.82L186.823,296.82z"/>
	<path fill-rule="evenodd" clip-rule="evenodd" fill="#E90737" d="M171.978,308.807c0.022-0.131,0.02-0.286,0.209-0.273
		c0.02,0.001,0.052,0.036,0.053,0.056C172.25,308.79,172.103,308.785,171.978,308.807L171.978,308.807z"/>
	<path fill-rule="evenodd" clip-rule="evenodd" fill="#D30D31" d="M185.163,302.862c0.021-0.05,0.032-0.129,0.067-0.143
		c0.034-0.015,0.093,0.036,0.141,0.058c-0.021,0.05-0.032,0.129-0.066,0.143C185.27,302.935,185.211,302.885,185.163,302.862z"/>
	<path fill-rule="evenodd" clip-rule="evenodd" fill="#E5E8E7" d="M183.494,301.164c-0.135-0.139-0.116-0.301-0.063-0.468
		C183.556,300.836,183.533,301,183.494,301.164z"/>
	<path fill-rule="evenodd" clip-rule="evenodd" fill="#E56E81" d="M182.323,292.487c0.068,0.165,0.137,0.33,0.206,0.495
		c-0.215,0.291-0.523,0.2-0.8,0.202c-1.122,0.008-2.243-0.006-3.364,0.006c-1.489,0.016-2.982-0.092-4.514,0.163
		c0.101-0.307,0.236-0.597,0.033-0.879c0.418-0.399,1.129-0.49,1.197-1.258c0.059-0.069,0.118-0.139,0.177-0.208
		c0.169-0.008,0.338-0.017,0.508-0.025c1.152-0.44,2.338-0.125,3.506-0.14c0.323-0.004,0.772-0.544,1.023,0.137
		c-0.022,0.018-0.051,0.032-0.066,0.055c-0.015,0.022-0.028,0.074-0.021,0.078C180.912,291.573,181.617,292.03,182.323,292.487z"/>
	<path fill-rule="evenodd" clip-rule="evenodd" fill="#C51D39" d="M182.323,292.487c-0.706-0.457-1.412-0.915-2.115-1.375
		c-0.006-0.004,0.007-0.056,0.021-0.078c0.015-0.023,0.043-0.037,0.066-0.055c1.032,0.049,2.019,0.223,2.755,1.093
		c-0.238,0.007-0.476,0.015-0.714,0.022c-0.023-0.132-0.02-0.288-0.21-0.275c-0.02,0.001-0.052,0.036-0.054,0.057
		c-0.013,0.201,0.136,0.197,0.261,0.221C182.33,292.228,182.326,292.358,182.323,292.487z"/>
	<path fill-rule="evenodd" clip-rule="evenodd" fill="#D7D7D8" d="M179.211,289.932c0.181,0.06,0.362,0.12,0.543,0.179
		c-0.064,0.431-0.401,0.421-0.628,0.305C178.909,290.307,179.302,290.126,179.211,289.932z"/>
	<path fill-rule="evenodd" clip-rule="evenodd" fill="#E65B74" d="M173.885,292.474c0.203,0.282,0.068,0.572-0.033,0.879
		c1.532-0.255,3.025-0.146,4.514-0.163c1.121-0.012,2.242,0.002,3.364-0.006c0.277-0.002,0.584,0.089,0.8-0.202
		c0.664,0.421,0.843,1.189,1.189,1.837c-3.487-0.39-6.985-0.082-10.477-0.178c-0.267-0.008-0.533,0.007-0.577-0.373
		C172.892,293.535,173.431,293.037,173.885,292.474z"/>
	<path fill-rule="evenodd" clip-rule="evenodd" fill="#F2EFF0" d="M177.847,298.996c-0.242,0.327-0.021,0.531,0.176,0.741
		c-0.065,0.393,0.123,0.739,0.181,1.109c-0.075,0.299-0.465,0.026-0.539,0.328c-0.054,0.046-0.145,0.084-0.153,0.138
		c-0.019,0.121,0.062,0.184,0.178,0.188c0.167,0.006,0.335,0.011,0.502,0.017c0.049,0.024,0.1,0.037,0.153,0.041
		c0.404,0.587,0.055,1.326,0.349,1.935c-0.62,0.99,0.326,0.431,0.536,0.6c-0.02,0.375-0.288,0.347-0.529,0.362
		c-0.281-0.015-0.561-0.03-0.842-0.045c-0.147-0.585-0.835-0.558-1.068-1.044c0.014-0.264-0.157-0.414-0.315-0.573
		c-0.025-0.07-0.051-0.141-0.077-0.211c-0.103-0.28-0.045-0.619-0.28-0.851c-0.012-0.065-0.024-0.131-0.036-0.197
		c0.001-0.116,0.003-0.231,0.004-0.347c0.028-0.362,0.057-0.725,0.085-1.087c0.249-0.088,0.311-0.297,0.316-0.542l-0.01,0.01
		c0.247-0.089,0.218-0.292,0.185-0.497c0.213-0.078,0.546-0.013,0.466-0.436c0.027-0.048,0.044-0.1,0.051-0.156
		c0.202,0.026,0.356-0.078,0.503-0.203C177.924,298.469,177.824,298.748,177.847,298.996z"/>
	<path fill-rule="evenodd" clip-rule="evenodd" fill="#E13053" d="M184.23,297.743c-0.348,0.501-1.048,0.783-0.903,1.593
		c-0.083,0.011-0.167,0.022-0.251,0.033c0.023-0.287-0.115-0.508-0.265-0.724c-0.346-0.941-1.045-1.53-1.83-2.034
		c-0.234-0.326-0.752-0.249-0.9-0.698c0.783,0.051,1.578-0.149,2.351,0.172c0.598,0.249,1.04-0.448,1.625-0.358
		C184.31,296.381,184.229,297.066,184.23,297.743z"/>
	<path fill-rule="evenodd" clip-rule="evenodd" fill="#F2EFF0" d="M180.981,296.611c0.785,0.504,1.484,1.093,1.83,2.034
		c-0.158,0.097-0.312,0.609-0.476,0.003c-0.085-0.316-0.174-0.634-0.518-0.195l-0.001,0.001c-0.958-0.423-1.94-0.439-2.937-0.182
		c-0.234-0.022-0.492,0.072-0.687-0.149c0.503-0.049,0.988-0.257,1.509-0.176c0.118,0.019,0.329,0.062,0.317-0.151
		c-0.005-0.105-0.178-0.2-0.274-0.3C180.062,297.054,180.443,296.712,180.981,296.611z"/>
	<path fill-rule="evenodd" clip-rule="evenodd" fill="#D30D31" d="M176.398,302.581c0.026,0.07,0.052,0.141,0.077,0.211
		c-0.018,0.265-0.029,0.527,0.315,0.573c0.233,0.487,0.921,0.459,1.068,1.044c-0.08,0.65-0.804,0.288-1.022,0.721
		c-0.164,0.042-0.32,0.063-0.394-0.152c0.567-0.549-0.074-0.781-0.304-1.012c-0.479-0.481-0.071,0.559-0.459,0.341
		c-0.057-0.553-0.823-0.52-0.831-1.113c0.025-0.064,0.05-0.129,0.075-0.193C175.416,302.86,175.907,302.72,176.398,302.581z"/>
	<path fill-rule="evenodd" clip-rule="evenodd" fill="#E90737" d="M176.837,305.129c0.218-0.433,0.942-0.071,1.022-0.721
		c0.281,0.015,0.561,0.03,0.842,0.045c0.197,0.48,0.785,0.127,1.02,0.527C179.085,305.489,177.506,305.569,176.837,305.129z"/>
	<path fill-rule="evenodd" clip-rule="evenodd" fill="#EEECEE" d="M174.849,303.192c0.008,0.593,0.774,0.56,0.831,1.113
		c0.011,0.049,0.021,0.098,0.033,0.146c-0.705,0.517-0.058,0.972,0.06,1.45c-0.395,0.265-0.399-0.386-0.704-0.331
		c0,0-0.021-0.019-0.02-0.018c0.008-0.117,0.017-0.233,0.025-0.35c0.126-0.822-0.356-0.81-0.894-0.722
		c-0.05-0.062-0.099-0.124-0.148-0.186c0.023-0.205-0.02-0.434,0.184-0.576c0.215,0.165,0.486,0.631,0.527-0.116
		C174.75,303.465,174.813,303.329,174.849,303.192z"/>
	<path fill-rule="evenodd" clip-rule="evenodd" fill="#E5E8E7" d="M179.72,304.981c-0.235-0.4-0.822-0.047-1.02-0.527
		c0.242-0.015,0.51,0.012,0.529-0.362l0.003-0.004c0.271-0.031,0.626,0.113,0.688-0.361c0.716,0.244,0.968,0.718,0.64,1.253
		C180.3,305.406,180.002,304.907,179.72,304.981z"/>
	<path fill-rule="evenodd" clip-rule="evenodd" fill="#E90737" d="M178.91,299.738c0.358-0.125,0.27,0.333,0.479,0.404
		c0.226,0.376,0.539,0.65,0.906,0.863c-0.018,0.054-0.035,0.108-0.053,0.163c-0.272-0.147-0.356,0.627-0.694,0.157
		c0.01-0.122-0.004-0.233-0.125-0.293c-0.295,0.167-0.162,0.453-0.175,0.698c-0.099,0.125-0.197,0.249-0.374,0.472
		c0-0.3,0-0.467,0-0.634c0-0.131,0-0.262,0-0.393c-0.002-0.137-0.003-0.274-0.005-0.412
		C178.882,300.421,178.896,300.08,178.91,299.738z"/>
	<path fill-rule="evenodd" clip-rule="evenodd" fill="#E13053" d="M178.874,301.567c0,0.167,0,0.334,0,0.634
		c0.176-0.223,0.275-0.347,0.373-0.472c0.295,0.012,0.354,0.296,0.5,0.481c-0.469,0.32-0.752,0.808-1.052,1.281
		c-0.294-0.609,0.055-1.347-0.349-1.935C178.521,301.614,178.695,301.683,178.874,301.567z"/>
	<path fill-rule="evenodd" clip-rule="evenodd" fill="#C51D39" d="M179.747,302.21c-0.146-0.185-0.205-0.469-0.5-0.481
		c0.014-0.245-0.12-0.531,0.175-0.699c-0.008,0.122,0.005,0.233,0.125,0.294c0.338,0.47,0.422-0.304,0.694-0.157
		c0.15,0.507,0.638,0.825,0.759,1.496C180.527,302.492,180.137,302.352,179.747,302.21z"/>
	<path fill-rule="evenodd" clip-rule="evenodd" fill="#E13053" d="M180.295,301.005c-0.367-0.212-0.68-0.486-0.906-0.863
		c0.507-0.15,1.045,0.123,1.703-0.318C180.8,300.403,180.782,300.873,180.295,301.005z"/>
	<path fill-rule="evenodd" clip-rule="evenodd" fill="#E5E8E7" d="M178.91,299.738c-0.014,0.342-0.028,0.683-0.042,1.025
		c-0.221,0.027-0.442,0.055-0.663,0.083c-0.058-0.371-0.246-0.717-0.181-1.109C178.319,299.738,178.614,299.738,178.91,299.738z"/>
	<path fill-rule="evenodd" clip-rule="evenodd" fill="#E5E8E7" d="M183.493,301.533c0.035,0.519-0.045,1.012-0.294,1.467
		c-0.088-0.249-0.178-0.498-0.266-0.748c-0.093-0.268-0.382-0.533-0.165-0.82C183.009,301.114,183.218,301.719,183.493,301.533z"/>
	<path fill-rule="evenodd" clip-rule="evenodd" fill="#E90737" d="M175.713,304.452c-0.012-0.048-0.022-0.097-0.033-0.146
		c0.388,0.218-0.02-0.822,0.459-0.341c0.23,0.231,0.871,0.463,0.304,1.012C176.071,305,176.034,304.508,175.713,304.452z"/>
	<path fill-rule="evenodd" clip-rule="evenodd" fill="#EEECEE" d="M178.192,298.124c0.195,0.221,0.453,0.127,0.687,0.149
		c-0.188,0.486-0.704,0.457-1.032,0.723c-0.023-0.248,0.077-0.527-0.163-0.72C177.792,297.998,178.003,298.102,178.192,298.124z"/>
	<path fill-rule="evenodd" clip-rule="evenodd" fill="#D7D7D8" d="M175.069,305.571c0.305-0.055,0.31,0.596,0.704,0.331
		c0.231,0.015,0.412,0.111,0.511,0.344C175.803,306.174,175.074,306.594,175.069,305.571z"/>
	<path fill-rule="evenodd" clip-rule="evenodd" fill="#F2EFF0" d="M179.922,303.726c-0.062,0.474-0.417,0.33-0.688,0.361
		C179.284,303.59,179.65,303.758,179.922,303.726z"/>
	<path fill-rule="evenodd" clip-rule="evenodd" fill="#F2EFF0" d="M181.818,298.454c0.024,0.014,0.047,0.028,0.071,0.042
		c-0.024-0.014-0.048-0.027-0.072-0.041L181.818,298.454z"/>
	<path fill-rule="evenodd" clip-rule="evenodd" fill="#F2EFF0" d="M173.302,299.694c0.308-1.479,1.171-2.511,2.365-3.288
		c0.076-0.049,0.09-0.203,0.133-0.309c0.809,0.139,1.567-0.564,2.393-0.157c-0.001,0.171-0.002,0.343-0.003,0.515
		c-0.112,0.001-0.224,0.002-0.336,0.002c-0.119-0.215-0.257-0.417-0.532-0.3c-0.195,0.083-0.16,0.293-0.163,0.466
		c-0.003,0.208,0.011,0.416,0.017,0.624c-0.939,0.678-2.28,0.912-2.444,2.447c-0.294,0.317-0.219,0.747-0.309,1.126
		c0,0.063,0,0.126,0,0.19l-0.059-0.023C174.007,300.56,173.99,299.822,173.302,299.694z"/>
	<path fill-rule="evenodd" clip-rule="evenodd" fill="#F8F4F6" d="M178.188,296.456c0.001-0.171,0.002-0.343,0.004-0.515
		c0.629-0.009,1.259-0.018,1.889-0.027c0.148,0.45,0.666,0.372,0.9,0.698c-0.538,0.1-0.92,0.442-1.237,0.885
		c-0.269,0.116-0.395-0.097-0.541-0.262C179.131,296.592,178.592,296.622,178.188,296.456z"/>
	<path fill-rule="evenodd" clip-rule="evenodd" fill="#E5E8E7" d="M174.216,303.719c-0.203,0.142-0.16,0.371-0.184,0.576
		c-0.782-0.452-0.62-1.395-0.974-2.069c0.002-0.651,0.005-1.302,0.008-1.953c0.186,0.411,0.528,0.823,0.523,1.23
		c-0.009,0.715,0.322,0.79,0.83,0.764c0.151,0.142,0.152,0.338,0.173,0.528C174.563,303.147,174.114,303.309,174.216,303.719z"/>
	<path fill-rule="evenodd" clip-rule="evenodd" fill="#F8F4F6" d="M174.181,304.481c0.538-0.087,1.02-0.1,0.894,0.722
		c-0.125,0.007-0.25,0.014-0.376,0.021C174.522,304.979,174.156,304.88,174.181,304.481z"/>
	<path fill-rule="evenodd" clip-rule="evenodd" fill="#D7D7D8" d="M174.698,305.224c0.125-0.007,0.251-0.014,0.376-0.021
		c-0.008,0.117-0.017,0.233-0.025,0.35C174.864,305.523,174.753,305.407,174.698,305.224z"/>
	<path fill-rule="evenodd" clip-rule="evenodd" fill="#F8F4F6" d="M174.419,302.268c-0.508,0.026-0.839-0.049-0.83-0.764
		c0.005-0.407-0.337-0.82-0.523-1.23c-0.146-0.227,0.095-0.362,0.118-0.549c0.04-0.011,0.079-0.021,0.118-0.031
		c0.688,0.128,0.705,0.866,1.062,1.294C174.382,301.415,174.401,301.841,174.419,302.268z"/>
	<path fill-rule="evenodd" clip-rule="evenodd" fill="#D30D31" d="M182.333,292.099c-0.125-0.024-0.274-0.02-0.261-0.221
		c0.001-0.021,0.034-0.056,0.054-0.057c0.19-0.013,0.187,0.143,0.21,0.275C182.336,292.095,182.333,292.099,182.333,292.099z"/>
	<path fill-rule="evenodd" clip-rule="evenodd" fill="#E13053" d="M179.204,297.235c0.146,0.165,0.271,0.377,0.541,0.262
		c0.097,0.1,0.269,0.195,0.274,0.3c0.012,0.213-0.199,0.17-0.317,0.151c-0.521-0.081-1.006,0.127-1.509,0.176
		c-0.189-0.022-0.4-0.126-0.508,0.151c-0.147,0.125-0.302,0.229-0.503,0.203c-0.26-0.301-0.332-0.115-0.371,0.158l0.002-0.002
		c-0.57,0.128-0.274,0.601-0.333,0.932l0.01-0.01c-0.586,0.046-1.171,0.092-1.757,0.139c0.164-1.535,1.505-1.769,2.444-2.447
		c0.223-0.033,0.445-0.066,0.667-0.1C178.296,297.177,178.75,297.206,179.204,297.235z"/>
	<path fill-rule="evenodd" clip-rule="evenodd" fill="#C51D39" d="M174.419,302.268c-0.019-0.427-0.037-0.854-0.055-1.28
		l0.059,0.023c0.314,0.55,0.989,0.104,1.345,0.54c0.056,0.211-0.12,0.557,0.183,0.607c0.212,0.036,0.129-0.271,0.167-0.429
		c0.235,0.232,0.177,0.571,0.28,0.851c-0.491,0.14-0.982,0.279-1.474,0.419c-0.11-0.068-0.221-0.136-0.332-0.204
		C174.572,302.606,174.571,302.41,174.419,302.268z"/>
	<path fill-rule="evenodd" clip-rule="evenodd" fill="#C51D39" d="M174.731,299.695c0.585-0.046,1.171-0.092,1.757-0.139
		c-0.005,0.245-0.067,0.454-0.316,0.542c-0.21,0.079-0.433,0.137-0.572,0.346c-0.444-0.055-0.708,0.517-1.177,0.376
		C174.512,300.442,174.438,300.013,174.731,299.695z"/>
	<path fill-rule="evenodd" clip-rule="evenodd" fill="#D30329" d="M174.423,300.821c0.469,0.141,0.733-0.431,1.177-0.376
		c-0.014,0.375,0.055,0.69,0.487,0.741c-0.001,0.116-0.003,0.231-0.004,0.347c-0.104,0.006-0.209,0.012-0.314,0.018
		c-0.356-0.435-1.031,0.01-1.345-0.54C174.423,300.948,174.423,300.885,174.423,300.821z"/>
	<path fill-rule="evenodd" clip-rule="evenodd" fill="#E90737" d="M176.087,301.186c-0.432-0.051-0.501-0.365-0.487-0.741
		c0.14-0.209,0.362-0.267,0.572-0.346C176.144,300.461,176.115,300.824,176.087,301.186z"/>
	<path fill-rule="evenodd" clip-rule="evenodd" fill="#D30D31" d="M178.205,300.846c0.221-0.028,0.442-0.056,0.663-0.083
		c0.002,0.137,0.003,0.274,0.005,0.412c-0.259,0.042-0.614-0.125-0.681,0.342c-0.167-0.005-0.334-0.011-0.502-0.017
		c0.07-0.085,0.141-0.17,0.211-0.255c-0.079-0.023-0.157-0.047-0.236-0.071C177.739,300.873,178.129,301.146,178.205,300.846z"/>
	<path fill-rule="evenodd" clip-rule="evenodd" fill="#D30329" d="M178.192,301.517c0.067-0.467,0.421-0.3,0.681-0.342
		c0,0.131,0,0.262,0,0.393c-0.178,0.115-0.353,0.047-0.528-0.01C178.292,301.554,178.241,301.541,178.192,301.517z"/>
	<path fill-rule="evenodd" clip-rule="evenodd" fill="#E90737" d="M175.769,301.551c0.105-0.006,0.209-0.012,0.314-0.018
		c0.012,0.065,0.024,0.131,0.036,0.197c-0.039,0.158,0.044,0.465-0.167,0.429C175.648,302.107,175.824,301.762,175.769,301.551z"/>
	<path fill-rule="evenodd" clip-rule="evenodd" fill="#C51D39" d="M176.479,299.566c0.059-0.331-0.237-0.803,0.333-0.932
		c-0.05,0.145-0.099,0.29-0.149,0.435C176.696,299.274,176.725,299.477,176.479,299.566z"/>
	<path fill-rule="evenodd" clip-rule="evenodd" fill="#E13053" d="M176.663,299.07c0.05-0.145,0.099-0.29,0.149-0.435l-0.002,0.002
		c0.106-0.001,0.213-0.002,0.319-0.003C177.209,299.057,176.876,298.992,176.663,299.07z"/>
	<path fill-rule="evenodd" clip-rule="evenodd" fill="#C51D39" d="M177.129,298.634c-0.106,0.001-0.213,0.002-0.319,0.003
		c0.039-0.273,0.111-0.459,0.371-0.158C177.174,298.534,177.156,298.585,177.129,298.634z"/>
	<path fill-rule="evenodd" clip-rule="evenodd" fill="#E90737" d="M177.666,301.174c0.079,0.024,0.157,0.047,0.236,0.071
		c-0.07,0.085-0.141,0.17-0.211,0.255c-0.117-0.004-0.197-0.067-0.178-0.188C177.521,301.258,177.612,301.22,177.666,301.174z"/>
	<path fill-rule="evenodd" clip-rule="evenodd" fill="#C51D39" d="M176.791,303.364c-0.344-0.046-0.333-0.308-0.315-0.573
		C176.633,302.95,176.805,303.101,176.791,303.364z"/>
	<path fill-rule="evenodd" clip-rule="evenodd" fill="#F8F4F6" d="M174.593,302.796c0.11,0.068,0.221,0.136,0.332,0.204
		c-0.025,0.064-0.05,0.128-0.075,0.193c-0.037,0.137-0.099,0.272-0.106,0.412c-0.041,0.747-0.312,0.281-0.527,0.116
		C174.114,303.309,174.563,303.147,174.593,302.796z"/>
	<path fill-rule="evenodd" clip-rule="evenodd" fill="#E13053" d="M179.547,301.325c-0.12-0.061-0.134-0.173-0.125-0.294
		C179.543,301.092,179.557,301.203,179.547,301.325z"/>
	<path fill-rule="evenodd" clip-rule="evenodd" fill="#EEECEE" d="M179.204,297.235c-0.454-0.029-0.907-0.058-1.361-0.086
		c0.003-0.23,0.006-0.46,0.01-0.69c0.112,0,0.224-0.001,0.336-0.002C178.592,296.622,179.131,296.592,179.204,297.235z"/>
	<path fill-rule="evenodd" clip-rule="evenodd" fill="#F8F4F6" d="M177.853,296.458c-0.003,0.23-0.007,0.46-0.01,0.69
		c-0.223,0.033-0.445,0.066-0.667,0.1c-0.006-0.208-0.02-0.416-0.017-0.624c0.003-0.173-0.033-0.383,0.163-0.466
		C177.596,296.041,177.734,296.243,177.853,296.458z"/>
</g>
<g>
	
		<text transform="matrix(1 0 0 1 221.499 270.3335)" stroke="#5799D4" stroke-width="2" stroke-miterlimit="10" font-family="'ArialRoundedMTBold'" font-size="21">L</text>
	<g>
		<linearGradient id="SVGID_1_" gradientUnits="userSpaceOnUse" x1="223.0781" y1="262.689" x2="233.8242" y2="262.689">
			<stop  offset="0" style="stop-color:#FFFFFF"/>
			<stop  offset="1" style="stop-color:#DFDFDF"/>
		</linearGradient>
		<path fill="url(#SVGID_1_)" d="M226.124,256.89v10.941h6.173c0.492,0,0.87,0.12,1.133,0.359c0.263,0.239,0.395,0.54,0.395,0.902
			c0,0.369-0.13,0.668-0.39,0.896c-0.26,0.229-0.639,0.344-1.138,0.344h-7.352c-0.663,0-1.14-0.146-1.431-0.441
			c-0.291-0.293-0.436-0.769-0.436-1.425V256.89c0-0.615,0.139-1.076,0.415-1.384c0.277-0.308,0.641-0.462,1.092-0.462
			c0.458,0,0.829,0.152,1.113,0.457C225.981,255.805,226.124,256.269,226.124,256.89z"/>
	</g>
</g>
<g>
	
		<text transform="matrix(1 0 0 1 274.7075 271.1606)" stroke="#5799D4" stroke-width="2" stroke-miterlimit="10" font-family="'ArialRoundedMTBold'" font-size="21">A</text>
	<g>
		<linearGradient id="SVGID_2_" gradientUnits="userSpaceOnUse" x1="275.2715" y1="263.644" x2="289.2168" y2="263.644">
			<stop  offset="0" style="stop-color:#FFFFFF"/>
			<stop  offset="1" style="stop-color:#DFDFDF"/>
		</linearGradient>
		<path fill="url(#SVGID_2_)" d="M285.966,269.458l-0.718-1.887h-6.111l-0.718,1.928c-0.28,0.752-0.52,1.26-0.718,1.522
			c-0.198,0.264-0.523,0.395-0.974,0.395c-0.383,0-0.721-0.14-1.015-0.42s-0.441-0.598-0.441-0.953c0-0.205,0.034-0.417,0.103-0.637
			c0.068-0.218,0.181-0.522,0.338-0.912l3.845-9.762c0.109-0.28,0.241-0.617,0.395-1.01c0.153-0.394,0.317-0.72,0.492-0.979
			c0.174-0.26,0.403-0.47,0.687-0.631c0.284-0.16,0.634-0.241,1.051-0.241c0.424,0,0.777,0.081,1.061,0.241
			c0.284,0.161,0.513,0.368,0.688,0.62c0.174,0.254,0.321,0.525,0.44,0.815c0.12,0.291,0.272,0.679,0.457,1.164l3.927,9.7
			c0.308,0.738,0.461,1.275,0.461,1.609c0,0.35-0.146,0.669-0.436,0.959c-0.291,0.291-0.641,0.436-1.051,0.436
			c-0.239,0-0.444-0.042-0.615-0.128c-0.171-0.085-0.314-0.201-0.431-0.349c-0.116-0.146-0.241-0.372-0.374-0.677
			C286.176,269.959,286.062,269.691,285.966,269.458z M279.937,265.286h4.491l-2.266-6.204L279.937,265.286z"/>
	</g>
</g>
<g>
	
		<text transform="matrix(1 0 0 1 327.5 271.1606)" stroke="#5799D4" stroke-width="2" stroke-miterlimit="10" font-family="'ArialRoundedMTBold'" font-size="21">B</text>
	<g>
		<linearGradient id="SVGID_3_" gradientUnits="userSpaceOnUse" x1="329.1201" y1="263.6445" x2="341.6094" y2="263.6445">
			<stop  offset="0" style="stop-color:#FFFFFF"/>
			<stop  offset="1" style="stop-color:#DFDFDF"/>
		</linearGradient>
		<path fill="url(#SVGID_3_)" d="M335.56,271.161h-4.594c-0.663,0-1.137-0.148-1.42-0.446c-0.284-0.297-0.426-0.771-0.426-1.42
			v-11.3c0-0.663,0.146-1.14,0.436-1.431c0.29-0.29,0.761-0.436,1.41-0.436h4.87c0.719,0,1.34,0.045,1.867,0.134
			c0.525,0.089,0.998,0.26,1.414,0.512c0.355,0.213,0.67,0.48,0.943,0.806c0.273,0.324,0.482,0.684,0.626,1.076
			c0.144,0.394,0.216,0.809,0.216,1.246c0,1.504-0.752,2.604-2.256,3.302c1.975,0.629,2.963,1.853,2.963,3.671
			c0,0.841-0.215,1.598-0.646,2.271c-0.43,0.673-1.012,1.171-1.742,1.491c-0.459,0.192-0.984,0.327-1.58,0.405
			C337.047,271.122,336.353,271.161,335.56,271.161z M332.166,258.415v3.887h2.789c0.758,0,1.344-0.072,1.758-0.215
			c0.414-0.145,0.73-0.417,0.949-0.82c0.17-0.287,0.256-0.608,0.256-0.965c0-0.758-0.27-1.263-0.811-1.512
			c-0.539-0.25-1.363-0.375-2.471-0.375H332.166z M335.334,264.485h-3.168v4.389h3.271c2.058,0,3.087-0.741,3.087-2.225
			c0-0.759-0.268-1.309-0.801-1.65S336.394,264.485,335.334,264.485z"/>
	</g>
</g>
</svg>
